<svg width="40" height="40" viewBox="0 0 40 40" fill="none" xmlns="http://www.w3.org/2000/svg">
<g clip-path="url(#clip0_6846_165117)">
<mask id="mask0_6846_165117" style="mask-type:luminance" maskUnits="userSpaceOnUse" x="0" y="0" width="40" height="40">
<path fill-rule="evenodd" clip-rule="evenodd" d="M0 40H40V-3.8147e-06H0V40Z" fill="white"/>
</mask>
<g mask="url(#mask0_6846_165117)">
<mask id="mask1_6846_165117" style="mask-type:luminance" maskUnits="userSpaceOnUse" x="0" y="0" width="40" height="40">
<path fill-rule="evenodd" clip-rule="evenodd" d="M0 -3.8147e-06V40H40V-3.8147e-06H0Z" fill="white"/>
</mask>
<g mask="url(#mask1_6846_165117)">
<path d="M14.6532 7.2924C15.187 7.2924 15.6216 7.72615 15.6216 8.26C15.6216 8.79385 15.187 9.22762 14.6532 9.22762C14.1193 9.22762 13.6847 8.79385 13.6847 8.26C13.6847 7.72615 14.1193 7.2924 14.6532 7.2924ZM19.9917 12.6293C20.5255 12.6293 20.9585 13.0631 20.9585 13.5969C20.9585 14.1308 20.5255 14.5645 19.9917 14.5645C19.4578 14.5645 19.0233 14.1308 19.0233 13.5969C19.0233 13.0631 19.4578 12.6293 19.9917 12.6293ZM27.1303 4.99992C27.6642 4.99992 28.0972 5.43367 28.0972 5.96752C28.0972 6.50138 27.6642 6.93513 27.1303 6.93513C26.5965 6.93513 26.162 6.50138 26.162 5.96752C26.162 5.43367 26.5965 4.99992 27.1303 4.99992ZM14.6532 10.8943C15.0975 10.8943 15.51 10.7734 15.8775 10.5786L17.6482 12.4175C17.4678 12.774 17.3567 13.1709 17.3567 13.5969C17.3567 15.0496 18.5382 16.2312 19.9917 16.2312C21.4435 16.2312 22.6252 15.0496 22.6252 13.5969C22.6252 13.2056 22.5338 12.8372 22.3802 12.503L26.2478 8.43874C26.5252 8.53802 26.8193 8.6018 27.1303 8.6018C28.5822 8.6018 29.7638 7.42017 29.7638 5.96752C29.7638 4.51488 28.5822 3.33325 27.1303 3.33325C25.677 3.33325 24.4953 4.51488 24.4953 5.96752C24.4953 6.49923 24.6563 6.99282 24.9283 7.40724L21.2343 11.2888C20.8623 11.0875 20.4433 10.9626 19.9917 10.9626C19.5733 10.9626 19.183 11.0694 18.8315 11.2435L17.032 9.3745C17.192 9.03485 17.2882 8.65968 17.2882 8.26C17.2882 6.80737 16.1066 5.62573 14.6532 5.62573C13.1997 5.62573 12.0181 6.80737 12.0181 8.26C12.0181 9.71264 13.1997 10.8943 14.6532 10.8943Z" fill="black"/>
</g>
<mask id="mask2_6846_165117" style="mask-type:luminance" maskUnits="userSpaceOnUse" x="0" y="0" width="40" height="40">
<path fill-rule="evenodd" clip-rule="evenodd" d="M0 -3.8147e-06V40H40V-3.8147e-06H0Z" fill="white"/>
</mask>
<g mask="url(#mask2_6846_165117)">
<path d="M33.3351 11.9344C34.2531 11.9344 35.0001 12.6815 35.0001 13.5995C35.0001 14.5174 34.2531 15.2645 33.3351 15.2645C32.4171 15.2645 31.6701 14.5174 31.6701 13.5995C31.6701 12.6815 32.4171 11.9344 33.3351 11.9344ZM33.3351 16.9312C35.1726 16.9312 36.6668 15.4362 36.6668 13.5995C36.6668 11.7627 35.1726 10.2678 33.3351 10.2678C31.4974 10.2678 30.0034 11.7627 30.0034 13.5995C30.0034 15.4362 31.4974 16.9312 33.3351 16.9312Z" fill="black"/>
</g>
<mask id="mask3_6846_165117" style="mask-type:luminance" maskUnits="userSpaceOnUse" x="0" y="0" width="40" height="40">
<path fill-rule="evenodd" clip-rule="evenodd" d="M0 -3.8147e-06V40H40V-3.8147e-06H0Z" fill="white"/>
</mask>
<g mask="url(#mask3_6846_165117)">
<path d="M33.3268 18.4017C31.608 18.4017 30.21 19.8072 30.21 21.5349V25.8111L26.7448 26.2232C25.568 26.3649 24.6045 27.2339 24.349 28.3806L22.6823 35.6471C22.5798 36.0954 22.8596 36.5431 23.309 36.6456C23.3708 36.6602 23.4341 36.6667 23.4945 36.6667C23.8753 36.6667 24.2188 36.4056 24.3066 36.0197L25.975 28.7484C26.0791 28.2781 26.46 27.9362 26.9433 27.8786L31.141 27.3789C31.5641 27.3284 31.8618 26.9669 31.8623 26.5512H31.8766V21.5349C31.8766 20.7261 32.5276 20.0684 33.3268 20.0684C34.1356 20.0684 34.7933 20.7261 34.7933 21.5349V28.4839C34.7933 29.2839 34.1356 29.9342 33.3268 29.9342V29.9416H27.469C27.0085 29.9416 26.6356 30.3142 26.6356 30.7749C26.6356 31.2354 27.0085 31.6082 27.469 31.6082H33.335C33.3636 31.6082 33.3878 31.5947 33.4156 31.5919C35.1008 31.5437 36.46 30.1724 36.46 28.4839V21.5349C36.46 19.8072 35.0536 18.4017 33.3268 18.4017Z" fill="black"/>
</g>
<mask id="mask4_6846_165117" style="mask-type:luminance" maskUnits="userSpaceOnUse" x="0" y="0" width="40" height="40">
<path fill-rule="evenodd" clip-rule="evenodd" d="M0 -3.8147e-06V40H40V-3.8147e-06H0Z" fill="white"/>
</mask>
<g mask="url(#mask4_6846_165117)">
<path d="M6.6652 11.9344C7.58316 11.9344 8.33025 12.6815 8.33025 13.5995C8.33025 14.5174 7.58316 15.2645 6.6652 15.2645C5.74723 15.2645 5.00016 14.5174 5.00016 13.5995C5.00016 12.6815 5.74723 11.9344 6.6652 11.9344ZM6.6652 16.9312C8.50276 16.9312 9.99691 15.4362 9.99691 13.5995C9.99691 11.7627 8.50276 10.2678 6.6652 10.2678C4.82763 10.2678 3.3335 11.7627 3.3335 13.5995C3.3335 15.4362 4.82763 16.9312 6.6652 16.9312Z" fill="black"/>
</g>
<mask id="mask5_6846_165117" style="mask-type:luminance" maskUnits="userSpaceOnUse" x="0" y="0" width="40" height="40">
<path fill-rule="evenodd" clip-rule="evenodd" d="M0 -3.8147e-06V40H40V-3.8147e-06H0Z" fill="white"/>
</mask>
<g mask="url(#mask5_6846_165117)">
<path d="M15.6527 28.3856C15.3955 27.2339 14.432 26.3649 13.2536 26.2232L9.79004 25.8112V21.5349C9.79004 19.8072 8.39194 18.4017 6.67319 18.4017C4.94629 18.4017 3.54004 19.8072 3.54004 21.5349V28.4839C3.54004 30.1724 4.89919 31.5437 6.58427 31.5919C6.61216 31.5947 6.63636 31.6082 6.66504 31.6082H12.5309C12.9915 31.6082 13.3643 31.2354 13.3643 30.7749C13.3643 30.3142 12.9915 29.9416 12.5309 29.9416H6.67319V29.9342C5.86426 29.9342 5.20671 29.2839 5.20671 28.4839V21.5349C5.20671 20.7261 5.86426 20.0684 6.67319 20.0684C7.47234 20.0684 8.12337 20.7261 8.12337 21.5349V26.5512H8.13772C8.13812 26.9669 8.43577 27.3284 8.85906 27.3789L13.0566 27.8786C13.54 27.9362 13.9209 28.2781 14.0267 28.7534L15.6934 36.0197C15.7813 36.4056 16.1247 36.6667 16.5055 36.6667C16.5658 36.6667 16.6292 36.6602 16.691 36.6456C17.1403 36.5431 17.4202 36.0954 17.3177 35.6471L15.6527 28.3856Z" fill="black"/>
</g>
<mask id="mask6_6846_165117" style="mask-type:luminance" maskUnits="userSpaceOnUse" x="0" y="0" width="40" height="40">
<path fill-rule="evenodd" clip-rule="evenodd" d="M0 -3.8147e-06V40H40V-3.8147e-06H0Z" fill="white"/>
</mask>
<g mask="url(#mask6_6846_165117)">
<path d="M27.085 24.5825C27.5455 24.5825 27.9183 24.2098 27.9183 23.7491C27.9183 23.2886 27.5455 22.9158 27.085 22.9158H12.1712C11.7106 22.9158 11.3379 23.2886 11.3379 23.7491C11.3379 24.2098 11.7106 24.5825 12.1712 24.5825H18.8655V35.831C18.8655 36.2915 19.2383 36.6643 19.6988 36.6643C20.1595 36.6643 20.5322 36.2915 20.5322 35.831V24.5825H27.085Z" fill="black"/>
</g>
</g>
</g>
<defs>
<clipPath id="clip0_6846_165117">
<rect width="40" height="40" fill="white"/>
</clipPath>
</defs>
</svg>
