<svg width="40" height="40" viewBox="0 0 40 40" fill="none" xmlns="http://www.w3.org/2000/svg">
<g clip-path="url(#clip0_6846_165121)">
<mask id="mask0_6846_165121" style="mask-type:luminance" maskUnits="userSpaceOnUse" x="0" y="0" width="40" height="40">
<path fill-rule="evenodd" clip-rule="evenodd" d="M0 40H40V-4.76837e-06H0V40Z" fill="white"/>
</mask>
<g mask="url(#mask0_6846_165121)">
<mask id="mask1_6846_165121" style="mask-type:luminance" maskUnits="userSpaceOnUse" x="0" y="0" width="40" height="40">
<path fill-rule="evenodd" clip-rule="evenodd" d="M0 -4.76837e-06V40H40V-4.76837e-06H0Z" fill="white"/>
</mask>
<g mask="url(#mask1_6846_165121)">
<path d="M26.8146 29.7502C26.2351 29.7502 25.7648 29.3042 25.7648 28.7566C25.7648 28.2089 26.2351 27.7637 26.8146 27.7637C27.394 27.7637 27.866 28.2089 27.866 28.7566C27.866 29.3042 27.394 29.7502 26.8146 29.7502ZM35.6558 31.3966L32.5926 21.6407C32.0473 19.9049 30.4165 18.7387 28.535 18.7387H26.2905C25.0291 18.7387 23.8588 19.4044 23.2371 20.4754C22.573 21.6196 21.3638 22.3024 20.0031 22.3024C18.6423 22.3024 17.4346 21.6196 16.7706 20.4754C16.1473 19.4044 14.977 18.7387 13.7173 18.7387H11.4712C9.59127 18.7387 7.96042 19.9041 7.41517 21.6399L4.35202 31.3966C3.96954 32.6124 4.18601 33.9039 4.94609 34.9407C5.74037 36.0214 7.03269 36.6667 8.40639 36.6667H24.4155C24.8761 36.6667 25.2488 36.2941 25.2488 35.8334C25.2488 35.3729 24.8761 35.0001 24.4155 35.0001H8.40639C7.54864 35.0001 6.77877 34.6192 6.29049 33.9544C5.84779 33.3506 5.71921 32.6002 5.94056 31.8962L9.0037 22.1396C9.32597 21.1182 10.34 20.4054 11.4712 20.4054H12.4298V25.2741C10.4204 25.6539 8.89629 27.3794 8.89629 29.4492V31.0466C8.89629 32.0094 9.69219 32.7931 10.672 32.7931H11.4956C11.9562 32.7931 12.3289 32.4204 12.3289 31.9597C12.3289 31.4991 11.9562 31.1264 11.4956 31.1264L10.563 31.0466V29.4492C10.563 28.0209 11.7723 26.8589 13.2599 26.8589C14.7475 26.8589 15.9568 28.0209 15.9568 29.4492L15.8494 31.1264H15.0259C14.5652 31.1264 14.1925 31.4991 14.1925 31.9597C14.1925 32.4204 14.5652 32.7931 15.0259 32.7931H15.8494C16.8276 32.7931 17.6235 32.0094 17.6235 31.0466V29.4492C17.6235 27.3816 16.1028 25.6571 14.0965 25.2747V20.4544C14.6119 20.5592 15.0662 20.8622 15.3286 21.3127C16.2938 22.9754 18.0418 23.9691 20.0015 23.9691C21.9626 23.9691 23.7123 22.9762 24.6791 21.3127C24.9526 20.8401 25.4396 20.5332 25.9861 20.4446V26.2371C24.8951 26.5824 24.0981 27.5749 24.0981 28.7566C24.0981 30.2239 25.3171 31.4169 26.8146 31.4169C28.3136 31.4169 29.5326 30.2239 29.5326 28.7566C29.5326 27.5781 28.7401 26.5879 27.6528 26.2399V20.4054H28.535C29.6678 20.4054 30.6818 21.1182 31.0025 22.1396L34.0671 31.8962C34.2805 32.5749 34.1535 33.2822 33.7091 33.8867C33.198 34.5842 32.3631 35.0001 31.476 35.0001C31.0155 35.0001 30.6426 35.3729 30.6426 35.8334C30.6426 36.2941 31.0155 36.6667 31.476 36.6667C32.8921 36.6667 34.2283 35.9962 35.052 34.8731C35.8071 33.8446 36.0268 32.5774 35.6558 31.3966Z" fill="black"/>
</g>
<mask id="mask2_6846_165121" style="mask-type:luminance" maskUnits="userSpaceOnUse" x="0" y="0" width="40" height="40">
<path fill-rule="evenodd" clip-rule="evenodd" d="M0 -4.76837e-06V40H40V-4.76837e-06H0Z" fill="white"/>
</mask>
<g mask="url(#mask2_6846_165121)">
<path d="M20 5.00005C22.9477 5.00005 25.345 7.31368 25.345 10.1579C25.345 13.1861 22.8288 17.0272 20 17.0272C17.1712 17.0272 14.6549 13.1861 14.6549 10.1579C14.6549 7.31368 17.0523 5.00005 20 5.00005ZM20 18.6938C23.8835 18.6938 27.0117 14.0243 27.0117 10.1579C27.0117 6.3949 23.8655 3.33338 20 3.33338C16.1344 3.33338 12.9883 6.3949 12.9883 10.1579C12.9883 14.0243 16.1165 18.6938 20 18.6938Z" fill="black"/>
</g>
</g>
</g>
<defs>
<clipPath id="clip0_6846_165121">
<rect width="40" height="40" fill="white"/>
</clipPath>
</defs>
</svg>
