<svg width="289" height="300" viewBox="0 0 289 300" fill="none" xmlns="http://www.w3.org/2000/svg">
<g clip-path="url(#clip0_92_2)">
<rect width="289" height="300" fill="#F6E7D0"/>
<path d="M-36.151 92.1095C-15.7772 92.1095 0.739128 75.5933 0.739128 55.2195C0.739128 34.8457 -15.7772 18.3294 -36.151 18.3294C-56.5248 18.3294 -73.041 34.8457 -73.041 55.2195C-73.041 75.5933 -56.5248 92.1095 -36.151 92.1095Z" fill="#B2C6EC"/>
<path d="M-35.3223 92.01C-14.9055 92.01 1.64564 75.4589 1.64564 55.0421C1.64564 34.6253 -14.9055 18.0743 -35.3223 18.0743C-55.7391 18.0743 -72.29 34.6253 -72.29 55.0421C-72.29 75.4589 -55.7391 92.01 -35.3223 92.01Z" fill="#B1C5EC"/>
<path d="M-34.4592 91.9231C-13.9994 91.9231 2.58649 75.3372 2.58649 54.8774C2.58649 34.4177 -13.9994 17.8317 -34.4592 17.8317C-54.9189 17.8317 -71.5049 34.4177 -71.5049 54.8774C-71.5049 75.3372 -54.9189 91.9231 -34.4592 91.9231Z" fill="#B0C4EC"/>
<path d="M-33.5613 91.8489C-13.0576 91.8489 3.56391 75.2274 3.56391 54.7236C3.56391 34.2199 -13.0576 17.5983 -33.5613 17.5983C-54.065 17.5983 -70.6865 34.2199 -70.6865 54.7236C-70.6865 75.2274 -54.065 91.8489 -33.5613 91.8489Z" fill="#AFC4EC"/>
<path d="M-32.6279 91.7856C-12.0812 91.7856 4.57508 75.1293 4.57508 54.5826C4.57508 34.0358 -12.0812 17.3794 -32.6279 17.3794C-53.1746 17.3794 -69.8311 34.0358 -69.8311 54.5826C-69.8311 75.1293 -53.1746 91.7856 -32.6279 91.7856Z" fill="#AEC3EB"/>
<path d="M-31.6577 91.7386C-11.0671 91.7386 5.62512 75.0465 5.62512 54.4558C5.62512 33.8651 -11.0671 17.1731 -31.6577 17.1731C-52.2484 17.1731 -68.9404 33.8651 -68.9404 54.4558C-68.9404 75.0465 -52.2484 91.7386 -31.6577 91.7386Z" fill="#ADC2EB"/>
<path d="M-30.6511 91.7023C-10.0174 91.7023 6.70936 74.9754 6.70936 54.3418C6.70936 33.7081 -10.0174 16.9812 -30.6511 16.9812C-51.2848 16.9812 -68.0117 33.7081 -68.0117 54.3418C-68.0117 74.9754 -51.2848 91.7023 -30.6511 91.7023Z" fill="#ACC1EB"/>
<path d="M-29.6056 91.6841C-8.92792 91.6841 7.83459 74.9216 7.83459 54.244C7.83459 33.5664 -8.92792 16.8038 -29.6056 16.8038C-50.2832 16.8038 -67.0459 33.5664 -67.0459 54.244C-67.0459 74.9216 -50.2832 91.6841 -29.6056 91.6841Z" fill="#ABC1EB"/>
<path d="M-28.519 91.6806C-7.79839 91.6806 8.99891 74.8833 8.99891 54.1626C8.99891 33.442 -7.79839 16.6447 -28.519 16.6447C-49.2396 16.6447 -66.0371 33.442 -66.0371 54.1626C-66.0371 74.8833 -49.2396 91.6806 -28.519 91.6806Z" fill="#AAC0EA"/>
<path d="M-27.3936 91.6951C-6.62899 91.6951 10.204 74.862 10.204 54.0974C10.204 33.3328 -6.62899 16.4998 -27.3936 16.4998C-48.1582 16.4998 -64.9912 33.3328 -64.9912 54.0974C-64.9912 74.862 -48.1582 91.6951 -27.3936 91.6951Z" fill="#A9BFEA"/>
<path d="M-26.2289 91.7258C-5.42133 91.7258 11.4467 74.8579 11.4467 54.0504C11.4467 33.2428 -5.42133 16.3749 -26.2289 16.3749C-47.0365 16.3749 -63.9043 33.2428 -63.9043 54.0504C-63.9043 74.8579 -47.0365 91.7258 -26.2289 91.7258Z" fill="#A8BFEA"/>
<path d="M-25.0193 91.7764C-4.16777 91.7764 12.7358 74.8729 12.7358 54.0213C12.7358 33.1698 -4.16777 16.2662 -25.0193 16.2662C-45.8709 16.2662 -62.7744 33.1698 -62.7744 54.0213C-62.7744 74.8729 -45.8709 91.7764 -25.0193 91.7764Z" fill="#A7BEEA"/>
<path d="M-23.7668 91.8435C-2.87222 91.8435 14.0661 74.9051 14.0661 54.0106C14.0661 33.1161 -2.87222 16.1777 -23.7668 16.1777C-44.6613 16.1777 -61.5996 33.1161 -61.5996 54.0106C-61.5996 74.9051 -44.6613 91.8435 -23.7668 91.8435Z" fill="#A6BDE9"/>
<path d="M-22.471 91.9322C-1.53353 91.9322 15.4396 74.959 15.4396 54.0215C15.4396 33.084 -1.53353 16.1108 -22.471 16.1108C-43.4085 16.1108 -60.3818 33.084 -60.3818 54.0215C-60.3818 74.959 -43.4085 91.9322 -22.471 91.9322Z" fill="#A5BCE9"/>
<path d="M-21.1288 92.0443C-0.14732 92.0443 16.8615 75.0355 16.8615 54.054C16.8615 33.0725 -0.14732 16.0636 -21.1288 16.0636C-42.1103 16.0636 -59.1191 33.0725 -59.1191 54.054C-59.1191 75.0355 -42.1103 92.0443 -21.1288 92.0443Z" fill="#A4BCE9"/>
<path d="M-19.7423 92.1746C1.28218 92.1746 18.3258 75.131 18.3258 54.1065C18.3258 33.0821 1.28218 16.0384 -19.7423 16.0384C-40.7667 16.0384 -57.8105 33.0821 -57.8105 54.1065C-57.8105 75.131 -40.7667 92.1746 -19.7423 92.1746Z" fill="#A3BBE9"/>
<path d="M-18.3092 92.3303C2.75921 92.3303 19.8386 75.2509 19.8386 54.1825C19.8386 33.1141 2.75921 16.0347 -18.3092 16.0347C-39.3777 16.0347 -56.457 33.1141 -56.457 54.1825C-56.457 75.2509 -39.3777 92.3303 -18.3092 92.3303Z" fill="#A2BAE8"/>
<path d="M-16.8262 92.5077C4.28523 92.5077 21.3994 75.3934 21.3994 54.282C21.3994 33.1706 4.28523 16.0565 -16.8262 16.0565C-37.9376 16.0565 -55.0518 33.1706 -55.0518 54.282C-55.0518 75.3934 -37.9376 92.5077 -16.8262 92.5077Z" fill="#A1B9E8"/>
<path d="M-15.2953 92.7121C5.86008 92.7121 23.0099 75.5622 23.0099 54.4068C23.0099 33.2514 5.86008 16.1017 -15.2953 16.1017C-36.4507 16.1017 -53.6006 33.2514 -53.6006 54.4068C-53.6006 75.5622 -36.4507 92.7121 -15.2953 92.7121Z" fill="#A0B9E8"/>
<path d="M-13.7156 92.9384C7.48278 92.9384 24.6674 75.7537 24.6674 54.5554C24.6674 33.357 7.48278 16.1722 -13.7156 16.1722C-34.914 16.1722 -52.0986 33.357 -52.0986 54.5554C-52.0986 75.7537 -34.914 92.9384 -13.7156 92.9384Z" fill="#9FB8E8"/>
<path d="M-12.0851 93.1936C9.15724 93.1936 26.3776 75.9733 26.3776 54.7309C26.3776 33.4885 9.15724 16.2682 -12.0851 16.2682C-33.3275 16.2682 -50.5479 33.4885 -50.5479 54.7309C-50.5479 75.9733 -33.3275 93.1936 -12.0851 93.1936Z" fill="#9EB7E7"/>
<path d="M-10.4019 93.4722C10.8835 93.4722 28.1386 76.217 28.1386 54.9317C28.1386 33.6463 10.8835 16.3912 -10.4019 16.3912C-31.6872 16.3912 -48.9424 33.6463 -48.9424 54.9317C-48.9424 76.217 -31.6872 93.4722 -10.4019 93.4722Z" fill="#9DB6E7"/>
<path d="M-8.66805 93.7816C12.6613 93.7816 29.9522 76.4908 29.9522 55.1614C29.9522 33.8321 12.6613 16.5413 -8.66805 16.5413C-29.9974 16.5413 -47.2881 33.8321 -47.2881 55.1614C-47.2881 76.4908 -29.9974 93.7816 -8.66805 93.7816Z" fill="#9CB6E7"/>
<path d="M-6.88015 94.1164C14.4921 94.1164 31.8178 76.7908 31.8178 55.4186C31.8178 34.0463 14.4921 16.7206 -6.88015 16.7206C-28.2524 16.7206 -45.5781 34.0463 -45.5781 55.4186C-45.5781 76.7908 -28.2524 94.1164 -6.88015 94.1164Z" fill="#9BB5E7"/>
<path d="M-5.03757 94.4821C16.3777 94.4821 33.7382 77.1217 33.7382 55.7064C33.7382 34.2911 16.3777 16.9306 -5.03757 16.9306C-26.4528 16.9306 -43.8135 34.2911 -43.8135 55.7064C-43.8135 77.1217 -26.4528 94.4821 -5.03757 94.4821Z" fill="#9AB4E6"/>
<path d="M-3.13985 94.8784C18.3194 94.8784 35.7156 77.4823 35.7156 56.023C35.7156 34.5638 18.3194 17.1676 -3.13985 17.1676C-24.5991 17.1676 -41.9951 34.5638 -41.9951 56.023C-41.9951 77.4823 -24.5991 94.8784 -3.13985 94.8784Z" fill="#99B3E6"/>
<path d="M-1.18478 95.3055C20.3174 95.3055 37.7484 77.8745 37.7484 56.3722C37.7484 34.87 20.3174 17.439 -1.18478 17.439C-22.687 17.439 -40.1182 34.87 -40.1182 56.3722C-40.1182 77.8745 -22.687 95.3055 -1.18478 95.3055Z" fill="#98B3E6"/>
<path d="M0.825409 95.7653C22.3716 95.7653 39.8383 78.2986 39.8383 56.7524C39.8383 35.2062 22.3716 17.7395 0.825409 17.7395C-20.7208 17.7395 -38.1875 35.2062 -38.1875 56.7524C-38.1875 78.2986 -20.7208 95.7653 0.825409 95.7653Z" fill="#97B2E6"/>
<path d="M2.89439 96.2556C24.4836 96.2556 41.9851 78.7541 41.9851 57.165C41.9851 35.5758 24.4836 18.0743 2.89439 18.0743C-18.6948 18.0743 -36.1963 35.5758 -36.1963 57.165C-36.1963 78.7541 -18.6948 96.2556 2.89439 96.2556Z" fill="#96B1E5"/>
<path d="M5.02292 96.7805C26.6561 96.7805 44.1931 79.2433 44.1931 57.6102C44.1931 35.977 26.6561 18.4399 5.02292 18.4399C-16.6102 18.4399 -34.1475 35.977 -34.1475 57.6102C-34.1475 79.2433 -16.6102 96.7805 5.02292 96.7805Z" fill="#95B0E5"/>
<path d="M7.21006 97.3398C28.8862 97.3398 46.4582 79.7678 46.4582 58.0916C46.4582 36.4155 28.8862 18.8436 7.21006 18.8436C-14.4661 18.8436 -32.0381 36.4155 -32.0381 58.0916C-32.0381 79.7678 -14.4661 97.3398 7.21006 97.3398Z" fill="#94B0E5"/>
<path d="M9.45951 97.9351C31.1796 97.9351 48.7874 80.3275 48.7874 58.6074C48.7874 36.8872 31.1796 19.2796 9.45951 19.2796C-12.2606 19.2796 -29.8682 36.8872 -29.8682 58.6074C-29.8682 80.3275 -12.2606 97.9351 9.45951 97.9351Z" fill="#93AFE5"/>
<path d="M11.7687 98.5648C33.5318 98.5648 51.1743 80.9224 51.1743 59.1593C51.1743 37.3962 33.5318 19.7537 11.7687 19.7537C-9.99438 19.7537 -27.6367 37.3962 -27.6367 59.1593C-27.6367 80.9224 -9.99438 98.5648 11.7687 98.5648Z" fill="#92AEE4"/>
<path d="M14.1433 99.2327C35.9504 99.2327 53.6287 81.5546 53.6287 59.7476C53.6287 37.9405 35.9504 20.2623 14.1433 20.2623C-7.66373 20.2623 -25.3418 37.9405 -25.3418 59.7476C-25.3418 81.5546 -7.66373 99.2327 14.1433 99.2327Z" fill="#91ADE4"/>
<path d="M16.5795 99.9367C38.4296 99.9367 56.1426 82.2238 56.1426 60.3737C56.1426 38.5237 38.4296 20.8107 16.5795 20.8107C-5.27055 20.8107 -22.9834 38.5237 -22.9834 60.3737C-22.9834 82.2238 -5.27055 99.9367 16.5795 99.9367Z" fill="#90ADE4"/>
<path d="M19.0823 100.679C40.9753 100.679 58.7231 82.931 58.7231 61.0379C58.7231 39.1449 40.9753 21.3971 19.0823 21.3971C-2.81078 21.3971 -20.5586 39.1449 -20.5586 61.0379C-20.5586 82.931 -2.81078 100.679 19.0823 100.679Z" fill="#8FACE4"/>
<path d="M21.6483 101.462C43.5853 101.462 61.3687 83.6788 61.3687 61.7418C61.3687 39.8048 43.5853 22.0214 21.6483 22.0214C-0.288721 22.0214 -18.0723 39.8048 -18.0723 61.7418C-18.0723 83.6788 -0.288721 101.462 21.6483 101.462Z" fill="#8EABE4"/>
<path d="M24.2817 102.284C46.2617 102.284 64.08 84.4656 64.08 62.4856C64.08 40.5056 46.2617 22.6873 24.2817 22.6873C2.30173 22.6873 -15.5166 40.5056 -15.5166 62.4856C-15.5166 84.4656 2.30173 102.284 24.2817 102.284Z" fill="#8DABE3"/>
<path d="M26.9833 103.149C49.0073 103.149 66.8613 85.295 66.8613 63.2711C66.8613 41.2471 49.0073 23.3931 26.9833 23.3931C4.95935 23.3931 -12.8945 41.2471 -12.8945 63.2711C-12.8945 85.295 4.95935 103.149 26.9833 103.149Z" fill="#8CAAE3"/>
<path d="M29.7525 104.052C51.8194 104.052 69.7083 86.1633 69.7083 64.0963C69.7083 42.0294 51.8194 24.1406 29.7525 24.1406C7.68554 24.1406 -10.2031 42.0294 -10.2031 64.0963C-10.2031 86.1633 7.68554 104.052 29.7525 104.052Z" fill="#8BA9E3"/>
<path d="M32.5902 105.002C54.7011 105.002 72.6255 87.0777 72.6255 64.9667C72.6255 42.8558 54.7011 24.9313 32.5902 24.9313C10.4793 24.9313 -7.44531 42.8558 -7.44531 64.9667C-7.44531 87.0777 10.4793 105.002 32.5902 105.002Z" fill="#8AA8E3"/>
<path d="M35.4988 105.992C57.6527 105.992 75.6121 88.0328 75.6121 65.8789C75.6121 43.725 57.6527 25.7657 35.4988 25.7657C13.3449 25.7657 -4.61426 43.725 -4.61426 65.8789C-4.61426 88.0328 13.3449 105.992 35.4988 105.992Z" fill="#89A8E2"/>
<path d="M38.4791 107.029C60.677 107.029 78.6719 89.0342 78.6719 66.8363C78.6719 44.6384 60.677 26.6435 38.4791 26.6435C16.2812 26.6435 -1.71387 44.6384 -1.71387 66.8363C-1.71387 89.0342 16.2812 107.029 38.4791 107.029Z" fill="#88A7E2"/>
<path d="M41.5303 108.11C63.7712 108.11 81.801 90.0798 81.801 67.8389C81.801 45.598 63.7712 27.5683 41.5303 27.5683C19.2895 27.5683 1.25977 45.598 1.25977 67.8389C1.25977 90.0798 19.2895 108.11 41.5303 108.11Z" fill="#87A6E2"/>
<path d="M44.6559 109.237C66.9408 109.237 85.0062 91.1716 85.0062 68.8868C85.0062 46.602 66.9408 28.5366 44.6559 28.5366C22.3711 28.5366 4.30566 46.602 4.30566 68.8868C4.30566 91.1716 22.3711 109.237 44.6559 109.237Z" fill="#86A5E2"/>
<path d="M47.854 110.41C70.1818 110.41 88.282 92.3094 88.282 69.9816C88.282 47.6538 70.1818 29.5535 47.854 29.5535C25.5262 29.5535 7.42578 47.6538 7.42578 69.9816C7.42578 92.3094 25.5262 110.41 47.854 110.41Z" fill="#85A5E1"/>
<path d="M51.128 111.629C73.4988 111.629 91.634 93.4943 91.634 71.1235C91.634 48.7527 73.4988 30.6176 51.128 30.6176C28.7572 30.6176 10.6221 48.7527 10.6221 71.1235C10.6221 93.4943 28.7572 111.629 51.128 111.629Z" fill="#84A4E1"/>
<path d="M54.4761 112.9C76.8909 112.9 95.0616 94.7292 95.0616 72.3144C95.0616 49.8996 76.8909 31.7288 54.4761 31.7288C32.0613 31.7288 13.8906 49.8996 13.8906 72.3144C13.8906 94.7292 32.0613 112.9 54.4761 112.9Z" fill="#83A3E1"/>
<path d="M57.9015 114.218C80.3593 114.218 98.565 96.012 98.565 73.5542C98.565 51.0965 80.3593 32.8908 57.9015 32.8908C35.4438 32.8908 17.2383 51.0965 17.2383 73.5542C17.2383 96.012 35.4438 114.218 57.9015 114.218Z" fill="#82A2E1"/>
<path d="M61.4051 115.588C83.9068 115.588 102.148 97.3463 102.148 74.8446C102.148 52.3428 83.9068 34.1016 61.4051 34.1016C38.9033 34.1016 20.6621 52.3428 20.6621 74.8446C20.6621 97.3463 38.9033 115.588 61.4051 115.588Z" fill="#81A2E0"/>
<path d="M64.9887 117.008C87.5334 117.008 105.81 98.7321 105.81 76.1874C105.81 53.6427 87.5334 35.3666 64.9887 35.3666C42.444 35.3666 24.168 53.6427 24.168 76.1874C24.168 98.7321 42.444 117.008 64.9887 117.008Z" fill="#80A1E0"/>
<path d="M68.6495 118.479C91.2381 118.479 109.55 100.168 109.55 77.579C109.55 54.9903 91.2381 36.6785 68.6495 36.6785C46.0608 36.6785 27.749 54.9903 27.749 77.579C27.749 100.168 46.0608 118.479 68.6495 118.479Z" fill="#7FA0E0"/>
<path d="M72.3905 120.003C95.0221 120.003 113.369 101.657 113.369 79.0249C113.369 56.3932 95.0221 38.0466 72.3905 38.0466C49.7588 38.0466 31.4121 56.3932 31.4121 79.0249C31.4121 101.657 49.7588 120.003 72.3905 120.003Z" fill="#7E9FE0"/>
<path d="M76.2141 121.583C98.8898 121.583 117.272 103.201 117.272 80.5253C117.272 57.8497 98.8898 39.4674 76.2141 39.4674C53.5385 39.4674 35.1562 57.8497 35.1562 80.5253C35.1562 103.201 53.5385 121.583 76.2141 121.583Z" fill="#7D9FDF"/>
<path d="M79.1825 122.835C101.901 122.835 120.318 104.418 120.318 81.6998C120.318 58.9812 101.901 40.5641 79.1825 40.5641C56.4639 40.5641 38.0469 58.9812 38.0469 81.6998C38.0469 104.418 56.4639 122.835 79.1825 122.835Z" fill="#7C9EDF"/>
<path d="M80.2193 123.297C102.982 123.297 121.435 104.844 121.435 82.0816C121.435 59.319 102.982 40.8663 80.2193 40.8663C57.4567 40.8663 39.0039 59.319 39.0039 82.0816C39.0039 104.844 57.4567 123.297 80.2193 123.297Z" fill="#7B9DDF"/>
<path d="M81.2326 123.71C104.038 123.71 122.526 105.222 122.526 82.4164C122.526 59.6108 104.038 41.1233 81.2326 41.1233C58.427 41.1233 39.9395 59.6108 39.9395 82.4164C39.9395 105.222 58.427 123.71 81.2326 123.71Z" fill="#7A9CDF"/>
<path d="M82.2226 124.073C105.071 124.073 123.594 105.551 123.594 82.7024C123.594 59.8538 105.071 41.3314 82.2226 41.3314C59.3741 41.3314 40.8516 59.8538 40.8516 82.7024C40.8516 105.551 59.3741 124.073 82.2226 124.073Z" fill="#799CDE"/>
<path d="M83.1908 124.394C106.083 124.394 124.641 105.836 124.641 82.9432C124.641 60.0507 106.083 41.4926 83.1908 41.4926C60.2983 41.4926 41.7402 60.0507 41.7402 82.9432C41.7402 105.836 60.2983 124.394 83.1908 124.394Z" fill="#789BDE"/>
<path d="M84.1338 124.665C107.069 124.665 125.662 106.072 125.662 83.1367C125.662 60.2012 107.069 41.6083 84.1338 41.6083C61.1983 41.6083 42.6055 60.2012 42.6055 83.1367C42.6055 106.072 61.1983 124.665 84.1338 124.665Z" fill="#779ADE"/>
<path d="M85.0553 124.893C108.035 124.893 126.663 106.265 126.663 83.2852C126.663 60.3057 108.035 41.6771 85.0553 41.6771C62.0758 41.6771 43.4473 60.3057 43.4473 83.2852C43.4473 106.265 62.0758 124.893 85.0553 124.893Z" fill="#7699DE"/>
<path d="M85.9524 125.076C108.975 125.076 127.638 106.412 127.638 83.39C127.638 60.3676 108.975 41.7042 85.9524 41.7042C62.93 41.7042 44.2666 60.3676 44.2666 83.39C44.2666 106.412 62.93 125.076 85.9524 125.076Z" fill="#7599DD"/>
<path d="M86.8288 125.215C109.895 125.215 128.594 106.516 128.594 83.4499C128.594 60.3835 109.895 41.6844 86.8288 41.6844C63.7624 41.6844 45.0635 60.3835 45.0635 83.4499C45.0635 106.516 63.7624 125.215 86.8288 125.215Z" fill="#7498DD"/>
<path d="M87.6812 125.309C110.791 125.309 129.525 106.576 129.525 83.4662C129.525 60.3568 110.791 41.6228 87.6812 41.6228C64.5718 41.6228 45.8379 60.3568 45.8379 83.4662C45.8379 106.576 64.5718 125.309 87.6812 125.309Z" fill="#7397DD"/>
<path d="M88.5097 125.362C111.663 125.362 130.433 106.592 130.433 83.4389C130.433 60.2855 111.663 41.516 88.5097 41.516C65.3563 41.516 46.5869 60.2855 46.5869 83.4389C46.5869 106.592 65.3563 125.362 88.5097 125.362Z" fill="#7296DD"/>
<path d="M89.317 125.371C112.513 125.371 131.318 106.567 131.318 83.3702C131.318 60.1739 112.513 41.3695 89.317 41.3695C66.1206 41.3695 47.3164 60.1739 47.3164 83.3702C47.3164 106.567 66.1206 125.371 89.317 125.371Z" fill="#7196DC"/>
<path d="M90.1029 125.338C113.343 125.338 132.183 106.498 132.183 83.258C132.183 60.0176 113.343 41.1776 90.1029 41.1776C66.8626 41.1776 48.0225 60.0176 48.0225 83.258C48.0225 106.498 66.8626 125.338 90.1029 125.338Z" fill="#7095DC"/>
<path d="M90.8643 125.264C114.148 125.264 133.022 106.389 133.022 83.1059C133.022 59.8226 114.148 40.9477 90.8643 40.9477C67.581 40.9477 48.7061 59.8226 48.7061 83.1059C48.7061 106.389 67.581 125.264 90.8643 125.264Z" fill="#6F94DC"/>
<path d="M91.6061 125.148C114.932 125.148 133.842 106.239 133.842 82.9124C133.842 59.586 114.932 40.6763 91.6061 40.6763C68.2798 40.6763 49.3701 59.586 49.3701 82.9124C49.3701 106.239 68.2798 125.148 91.6061 125.148Z" fill="#6E94DC"/>
<path d="M92.3253 124.996C115.696 124.996 134.641 106.051 134.641 82.6806C134.641 59.3103 115.696 40.365 92.3253 40.365C68.955 40.365 50.0098 59.3103 50.0098 82.6806C50.0098 106.051 68.955 124.996 92.3253 124.996Z" fill="#6D93DC"/>
<path d="M93.0214 124.801C116.435 124.801 135.415 105.821 135.415 82.4075C135.415 58.9942 116.435 40.014 93.0214 40.014C69.6081 40.014 50.6279 58.9942 50.6279 82.4075C50.6279 105.821 69.6081 124.801 93.0214 124.801Z" fill="#6C92DB"/>
<path d="M93.6966 124.569C117.154 124.569 136.17 105.553 136.17 82.0962C136.17 58.639 117.154 39.6231 93.6966 39.6231C70.2394 39.6231 51.2236 58.639 51.2236 82.0962C51.2236 105.553 70.2394 124.569 93.6966 124.569Z" fill="#6B91DB"/>
<path d="M94.3498 124.298C117.85 124.298 136.901 105.247 136.901 81.747C136.901 58.2468 117.85 39.196 94.3498 39.196C70.8495 39.196 51.7988 58.2468 51.7988 81.747C51.7988 105.247 70.8495 124.298 94.3498 124.298Z" fill="#6A91DB"/>
<path d="M94.9822 123.988C118.526 123.988 137.613 104.902 137.613 81.3578C137.613 57.8136 118.526 38.7272 94.9822 38.7272C71.438 38.7272 52.3516 57.8136 52.3516 81.3578C52.3516 104.902 71.438 123.988 94.9822 123.988Z" fill="#6990DB"/>
<path d="M95.5932 123.643C119.18 123.643 138.302 104.521 138.302 80.9342C138.302 57.347 119.18 38.2259 95.5932 38.2259C72.006 38.2259 52.8848 57.347 52.8848 80.9342C52.8848 104.521 72.006 123.643 95.5932 123.643Z" fill="#688FDA"/>
<path d="M96.1834 123.261C119.815 123.261 138.971 104.104 138.971 80.4727C138.971 56.8416 119.815 37.6847 96.1834 37.6847C72.5523 37.6847 53.3955 56.8416 53.3955 80.4727C53.3955 104.104 72.5523 123.261 96.1834 123.261Z" fill="#678EDA"/>
<path d="M96.7514 122.841C120.426 122.841 139.617 103.649 139.617 79.9751C139.617 56.301 120.426 37.1093 96.7514 37.1093C73.0773 37.1093 53.8857 56.301 53.8857 79.9751C53.8857 103.649 73.0773 122.841 96.7514 122.841Z" fill="#668EDA"/>
<path d="M97.298 122.389C121.016 122.389 140.243 103.161 140.243 79.4432C140.243 55.725 121.016 36.4977 97.298 36.4977C73.5798 36.4977 54.3525 55.725 54.3525 79.4432C54.3525 103.161 73.5798 122.389 97.298 122.389Z" fill="#658DDA"/>
<path d="M97.8251 121.9C121.586 121.9 140.848 102.638 140.848 78.8765C140.848 55.1154 121.586 35.8533 97.8251 35.8533C74.064 35.8533 54.8018 55.1154 54.8018 78.8765C54.8018 102.638 74.064 121.9 97.8251 121.9Z" fill="#648CD9"/>
<path d="M98.3316 121.375C122.136 121.375 141.433 102.078 141.433 78.2739C141.433 54.4698 122.136 35.1729 98.3316 35.1729C74.5275 35.1729 55.2305 54.4698 55.2305 78.2739C55.2305 102.078 74.5275 121.375 98.3316 121.375Z" fill="#638BD9"/>
<path d="M98.8164 120.819C122.664 120.819 141.997 101.487 141.997 77.6386C141.997 53.7906 122.664 34.4579 98.8164 34.4579C74.9683 34.4579 55.6357 53.7906 55.6357 77.6386C55.6357 101.487 74.9683 120.819 98.8164 120.819Z" fill="#628BD9"/>
<path d="M99.282 120.229C123.173 120.229 142.541 100.862 142.541 76.971C142.541 53.08 123.173 33.7124 99.282 33.7124C75.391 33.7124 56.0234 53.08 56.0234 76.971C56.0234 100.862 75.391 120.229 99.282 120.229Z" fill="#618AD9"/>
<path d="M99.7268 119.609C123.662 119.609 143.065 100.206 143.065 76.2706C143.065 52.3356 123.662 32.9325 99.7268 32.9325C75.7918 32.9325 56.3887 52.3356 56.3887 76.2706C56.3887 100.206 75.7918 119.609 99.7268 119.609Z" fill="#6089D8"/>
<path d="M100.152 118.955C124.13 118.955 143.568 99.5175 143.568 75.5395C143.568 51.5615 124.13 32.1235 100.152 32.1235C76.1742 32.1235 56.7363 51.5615 56.7363 75.5395C56.7363 99.5175 76.1742 118.955 100.152 118.955Z" fill="#5F88D8"/>
<path d="M100.556 118.271C124.578 118.271 144.052 98.7978 144.052 74.7758C144.052 50.7538 124.578 31.2801 100.556 31.2801C76.5342 31.2801 57.0605 50.7538 57.0605 74.7758C57.0605 98.7978 76.5342 118.271 100.556 118.271Z" fill="#5E88D8"/>
<path d="M100.942 117.555C125.007 117.555 144.515 98.0462 144.515 73.9813C144.515 49.9163 125.007 30.4078 100.942 30.4078C76.8767 30.4078 57.3682 49.9163 57.3682 73.9813C57.3682 98.0462 76.8767 117.555 100.942 117.555Z" fill="#5D87D8"/>
<path d="M101.306 116.811C125.415 116.811 144.959 97.2667 144.959 73.1578C144.959 49.0488 125.415 29.5047 101.306 29.5047C77.1975 29.5047 57.6533 49.0488 57.6533 73.1578C57.6533 97.2667 77.1975 116.811 101.306 116.811Z" fill="#5C86D7"/>
<path d="M101.651 116.034C125.803 116.034 145.382 96.4554 145.382 72.3035C145.382 48.1516 125.803 28.5726 101.651 28.5726C77.4988 28.5726 57.9199 48.1516 57.9199 72.3035C57.9199 96.4554 77.4988 116.034 101.651 116.034Z" fill="#5B85D7"/>
<path d="M101.977 115.231C126.172 115.231 145.787 95.6164 145.787 71.4205C145.787 47.2246 126.172 27.61 101.977 27.61C77.7807 27.61 58.166 47.2246 58.166 71.4205C58.166 95.6164 77.7807 115.231 101.977 115.231Z" fill="#5A85D7"/>
<path d="M102.284 114.398C126.523 114.398 146.172 94.7489 146.172 70.5101C146.172 46.2712 126.523 26.6218 102.284 26.6218C78.0449 26.6218 58.3955 46.2712 58.3955 70.5101C58.3955 94.7489 78.0449 114.398 102.284 114.398Z" fill="#5984D7"/>
<path d="M102.57 113.537C126.852 113.537 146.536 93.8526 146.536 69.5708C146.536 45.2889 126.852 25.6046 102.57 25.6046C78.2879 25.6046 58.6035 45.2889 58.6035 69.5708C58.6035 93.8526 78.2879 113.537 102.57 113.537Z" fill="#5883D6"/>
<path d="M102.838 112.652C127.164 112.652 146.884 92.932 146.884 68.6062C146.884 44.2804 127.164 24.5604 102.838 24.5604C78.5119 24.5604 58.792 44.2804 58.792 68.6062C58.792 92.932 78.5119 112.652 102.838 112.652Z" fill="#5782D6"/>
<path d="M103.088 111.738C127.456 111.738 147.211 91.9832 147.211 67.6144C147.211 43.2456 127.456 23.4908 103.088 23.4908C78.7188 23.4908 58.9639 43.2456 58.9639 67.6144C58.9639 91.9832 78.7188 111.738 103.088 111.738Z" fill="#5682D6"/>
<path d="M103.317 110.799C127.73 110.799 147.521 91.0084 147.521 66.5957C147.521 42.1829 127.73 22.3925 103.317 22.3925C78.9047 22.3925 59.1143 42.1829 59.1143 66.5957C59.1143 91.0084 78.9047 110.799 103.317 110.799Z" fill="#5581D6"/>
<path d="M103.529 109.834C127.985 109.834 147.81 90.009 147.81 65.5532C147.81 41.0975 127.985 21.2722 103.529 21.2722C79.0733 21.2722 59.248 41.0975 59.248 65.5532C59.248 90.009 79.0733 109.834 103.529 109.834Z" fill="#5480D5"/>
<path d="M103.721 108.846C128.221 108.846 148.082 88.9852 148.082 64.4854C148.082 39.9857 128.221 20.1248 103.721 20.1248C79.2213 20.1248 59.3604 39.9857 59.3604 64.4854C59.3604 88.9852 79.2213 108.846 103.721 108.846Z" fill="#5380D5"/>
<path d="M103.895 107.831C128.437 107.831 148.333 87.935 148.333 63.3923C148.333 38.8496 128.437 18.9539 103.895 18.9539C79.352 18.9539 59.4561 38.8496 59.4561 63.3923C59.4561 87.935 79.352 107.831 103.895 107.831Z" fill="#527FD5"/>
<path d="M104.05 106.796C128.637 106.796 148.568 86.8643 148.568 62.2777C148.568 37.691 128.637 17.7595 104.05 17.7595C79.4635 17.7595 59.5322 37.691 59.5322 62.2777C59.5322 86.8643 79.4635 106.796 104.05 106.796Z" fill="#517ED5"/>
<path d="M104.188 105.733C128.818 105.733 148.784 85.7669 148.784 61.1373C148.784 36.5076 128.818 16.5413 104.188 16.5413C79.5582 16.5413 59.5918 36.5076 59.5918 61.1373C59.5918 85.7669 79.5582 105.733 104.188 105.733Z" fill="#507DD4"/>
<path d="M104.307 104.653C128.981 104.653 148.983 84.6511 148.983 59.9775C148.983 35.3038 128.981 15.3018 104.307 15.3018C79.6337 15.3018 59.6318 35.3038 59.6318 59.9775C59.6318 84.6511 79.6337 104.653 104.307 104.653Z" fill="#4F7DD4"/>
<path d="M104.409 103.547C129.125 103.547 149.162 83.5103 149.162 58.7937C149.162 34.0771 129.125 14.0403 104.409 14.0403C79.6921 14.0403 59.6553 34.0771 59.6553 58.7937C59.6553 83.5103 79.6921 103.547 104.409 103.547Z" fill="#4E7CD4"/>
<path d="M104.492 102.422C129.252 102.422 149.323 82.3499 149.323 57.5903C149.323 32.8307 129.252 12.7591 104.492 12.7591C79.7327 12.7591 59.6611 32.8307 59.6611 57.5903C59.6611 82.3499 79.7327 102.422 104.492 102.422Z" fill="#4D7BD4"/>
<path d="M104.557 101.276C129.361 101.276 149.468 81.1687 149.468 56.3651C149.468 31.5615 129.361 11.4542 104.557 11.4542C79.7536 11.4542 59.6465 31.5615 59.6465 56.3651C59.6465 81.1687 79.7536 101.276 104.557 101.276Z" fill="#4C7AD3"/>
<path d="M104.606 100.11C129.452 100.11 149.594 79.9684 149.594 55.1218C149.594 30.2753 129.452 10.1331 104.606 10.1331C79.7593 10.1331 59.6172 30.2753 59.6172 55.1218C59.6172 79.9684 79.7593 100.11 104.606 100.11Z" fill="#4B7AD3"/>
<path d="M104.637 98.925C129.527 98.925 149.705 78.7472 149.705 53.8566C149.705 28.9661 129.527 8.78839 104.637 8.78839C79.7462 8.78839 59.5684 28.9661 59.5684 53.8566C59.5684 78.7472 79.7462 98.925 104.637 98.925Z" fill="#4A79D3"/>
<path d="M104.649 97.7198C129.583 97.7198 149.795 77.5072 149.795 52.5737C149.795 27.6402 129.583 7.42758 104.649 7.42758C79.7155 7.42758 59.5029 27.6402 59.5029 52.5737C59.5029 77.5072 79.7155 97.7198 104.649 97.7198Z" fill="#4978D3"/>
<path d="M104.646 96.4981C129.623 96.4981 149.871 76.2499 149.871 51.2724C149.871 26.2949 129.623 6.04666 104.646 6.04666C79.6681 6.04666 59.4199 26.2949 59.4199 51.2724C59.4199 76.2499 79.6681 96.4981 104.646 96.4981Z" fill="#4877D3"/>
<path d="M104.624 95.2566C129.644 95.2566 149.927 74.9735 149.927 49.953C149.927 24.9326 129.644 4.64948 104.624 4.64948C79.6034 4.64948 59.3203 24.9326 59.3203 49.953C59.3203 74.9735 79.6034 95.2566 104.624 95.2566Z" fill="#4777D2"/>
<path d="M104.586 94.0007C129.651 94.0007 149.97 73.682 149.97 48.6175C149.97 23.5531 129.651 3.23434 104.586 3.23434C79.5218 3.23434 59.2031 23.5531 59.2031 48.6175C59.2031 73.682 79.5218 94.0007 104.586 94.0007Z" fill="#4676D2"/>
<path d="M104.531 92.7267C129.639 92.7267 149.992 72.3731 149.992 47.2657C149.992 22.1583 129.639 1.80475 104.531 1.80475C79.4239 1.80475 59.0703 22.1583 59.0703 47.2657C59.0703 72.3731 79.4239 92.7267 104.531 92.7267Z" fill="#4575D2"/>
<path d="M104.46 91.4381C129.611 91.4381 150 71.0488 150 45.8974C150 20.746 129.611 0.356873 104.46 0.356873C79.3083 0.356873 58.9189 20.746 58.9189 45.8974C58.9189 71.0488 79.3083 91.4381 104.46 91.4381Z" fill="#4474D2"/>
<path d="M104.37 90.1314C129.565 90.1314 149.989 69.7073 149.989 44.513C149.989 19.3186 129.565 -1.10547 104.37 -1.10547C79.1761 -1.10547 58.752 19.3186 58.752 44.513C58.752 69.7073 79.1761 90.1314 104.37 90.1314Z" fill="#4374D1"/>
<path d="M104.265 88.814C129.504 88.814 149.963 68.3542 149.963 43.1159C149.963 17.8775 129.504 -2.58218 104.265 -2.58218C79.0271 -2.58218 58.5674 17.8775 58.5674 43.1159C58.5674 68.3542 79.0271 88.814 104.265 88.814Z" fill="#4273D1"/>
<path d="M104.144 87.4784C129.425 87.4784 149.92 66.9839 149.92 41.7026C149.92 16.4212 129.425 -4.07343 104.144 -4.07343C78.8628 -4.07343 58.3682 16.4212 58.3682 41.7026C58.3682 66.9839 78.8628 87.4784 104.144 87.4784Z" fill="#4172D1"/>
<path d="M104.007 86.1319C129.331 86.1319 149.861 65.6024 149.861 40.2781C149.861 14.9538 129.331 -5.57562 104.007 -5.57562C78.6828 -5.57562 58.1533 14.9538 58.1533 40.2781C58.1533 65.6024 78.6828 86.1319 104.007 86.1319Z" fill="#4071D1"/>
<path d="M103.853 84.7728C129.221 84.7728 149.787 64.2077 149.787 38.8395C149.787 13.4712 129.221 -7.0939 103.853 -7.0939C78.4849 -7.0939 57.9199 13.4712 57.9199 38.8395C57.9199 64.2077 78.4849 84.7728 103.853 84.7728Z" fill="#3F71D0"/>
<path d="M103.685 83.3992C129.096 83.3992 149.696 62.7992 149.696 37.388C149.696 11.9767 129.096 -8.62317 103.685 -8.62317C78.2738 -8.62317 57.6738 11.9767 57.6738 37.388C57.6738 62.7992 78.2738 83.3992 103.685 83.3992Z" fill="#3E70D0"/>
<path d="M103.498 82.0148C128.953 82.0148 149.589 61.3792 149.589 35.924C149.589 10.4687 128.953 -10.1669 103.498 -10.1669C78.0427 -10.1669 57.4072 10.4687 57.4072 35.924C57.4072 61.3792 78.0427 82.0148 103.498 82.0148Z" fill="#3D6FD0"/>
<path d="M103.297 80.6194C128.796 80.6194 149.466 59.9489 149.466 34.4507C149.466 8.95247 128.796 -11.7179 103.297 -11.7179C77.7992 -11.7179 57.1289 8.95247 57.1289 34.4507C57.1289 59.9489 77.7992 80.6194 103.297 80.6194Z" fill="#3C6ED0"/>
<path d="M103.082 79.2133C128.624 79.2133 149.33 58.5072 149.33 32.965C149.33 7.42281 128.624 -13.2832 103.082 -13.2832C77.54 -13.2832 56.834 7.42281 56.834 32.965C56.834 58.5072 77.54 79.2133 103.082 79.2133Z" fill="#3B6ECF"/>
<path d="M102.849 77.798C128.434 77.798 149.175 57.0571 149.175 31.4719C149.175 5.88673 128.434 -14.8542 102.849 -14.8542C77.2634 -14.8542 56.5225 5.88673 56.5225 31.4719C56.5225 57.0571 77.2634 77.798 102.849 77.798Z" fill="#3A6DCF"/>
<path d="M102.603 76.372C128.232 76.372 149.009 55.5954 149.009 29.9663C149.009 4.33713 128.232 -16.4394 102.603 -16.4394C76.9738 -16.4394 56.1973 4.33713 56.1973 29.9663C56.1973 55.5954 76.9738 76.372 102.603 76.372Z" fill="#396CCF"/>
<path d="M102.34 74.9367C128.012 74.9367 148.824 54.1254 148.824 28.4533C148.824 2.78112 128.012 -18.0303 102.34 -18.0303C76.6678 -18.0303 55.8564 2.78112 55.8564 28.4533C55.8564 54.1254 76.6678 74.9367 102.34 74.9367Z" fill="#386CCF"/>
<path d="M102.061 73.4962C127.777 73.4962 148.624 52.6491 148.624 26.933C148.624 1.21691 127.777 -19.6301 102.061 -19.6301C76.3451 -19.6301 55.498 1.21691 55.498 26.933C55.498 52.6491 76.3451 73.4962 102.061 73.4962Z" fill="#376BCE"/>
<path d="M101.768 72.0448C127.527 72.0448 148.409 51.1629 148.409 25.4039C148.409 -0.355242 127.527 -21.2372 101.768 -21.2372C76.009 -21.2372 55.127 -0.355242 55.127 25.4039C55.127 51.1629 76.009 72.0448 101.768 72.0448Z" fill="#366ACE"/>
<path d="M101.462 70.588C127.264 70.588 148.181 49.6713 148.181 23.8692C148.181 -1.93286 127.264 -22.8496 101.462 -22.8496C75.6599 -22.8496 54.7432 -1.93286 54.7432 23.8692C54.7432 49.6713 75.6599 70.588 101.462 70.588Z" fill="#3569CE"/>
<path d="M101.14 69.1256C126.986 69.1256 147.939 48.1733 147.939 22.3272C147.939 -3.51883 126.986 -24.4713 101.14 -24.4713C75.2941 -24.4713 54.3418 -3.51883 54.3418 22.3272C54.3418 48.1733 75.2941 69.1256 101.14 69.1256Z" fill="#3469CE"/>
<path d="M100.802 67.6543C126.691 67.6543 147.678 46.6671 147.678 20.7781C147.678 -5.11097 126.691 -26.0982 100.802 -26.0982C74.9129 -26.0982 53.9258 -5.11097 53.9258 20.7781C53.9258 46.6671 74.9129 67.6543 100.802 67.6543Z" fill="#3368CD"/>
<path d="M100.451 66.1811C126.384 66.1811 147.407 45.1582 147.407 19.2252C147.407 -6.70777 126.384 -27.7306 100.451 -27.7306C74.518 -27.7306 53.4951 -6.70777 53.4951 19.2252C53.4951 45.1582 74.518 66.1811 100.451 66.1811Z" fill="#3267CD"/>
<path d="M100.085 64.7008C126.061 64.7008 147.119 43.6432 147.119 17.6672C147.119 -8.3088 126.061 -29.3665 100.085 -29.3665C74.1094 -29.3665 53.0518 -8.3088 53.0518 17.6672C53.0518 43.6432 74.1094 64.7008 100.085 64.7008Z" fill="#3166CD"/>
<path d="M99.7071 63.2185C125.727 63.2185 146.82 42.1251 146.82 16.1052C146.82 -9.91478 125.727 -31.0081 99.7071 -31.0081C73.6871 -31.0081 52.5938 -9.91478 52.5938 16.1052C52.5938 42.1251 73.6871 63.2185 99.7071 63.2185Z" fill="#3066CD"/>
<path d="M99.3122 61.731C125.375 61.731 146.503 40.6028 146.503 14.5398C146.503 -11.5231 125.375 -32.6513 99.3122 -32.6513C73.2492 -32.6513 52.1211 -11.5231 52.1211 14.5398C52.1211 40.6028 73.2492 61.731 99.3122 61.731Z" fill="#2F65CC"/>
<path d="M98.9056 60.2415C125.012 60.2415 146.176 39.0777 146.176 12.9707C146.176 -13.1362 125.012 -34.3 98.9056 -34.3C72.7986 -34.3 51.6348 -13.1362 51.6348 12.9707C51.6348 39.0777 72.7986 60.2415 98.9056 60.2415Z" fill="#2E64CC"/>
<path d="M98.4833 58.7485C124.633 58.7485 145.832 37.5498 145.832 11.3999C145.832 -14.75 124.633 -35.9487 98.4833 -35.9487C72.3334 -35.9487 51.1348 -14.75 51.1348 11.3999C51.1348 37.5498 72.3334 58.7485 98.4833 58.7485Z" fill="#2D63CC"/>
<path d="M98.0492 57.2554C124.243 57.2554 145.477 36.021 145.477 9.82713C145.477 -16.3667 124.243 -37.601 98.0492 -37.601C71.8553 -37.601 50.6211 -16.3667 50.6211 9.82713C50.6211 36.021 71.8553 57.2554 98.0492 57.2554Z" fill="#2C63CC"/>
<path d="M97.6007 55.7605C123.838 55.7605 145.107 34.4913 145.107 8.25444C145.107 -17.9824 123.838 -39.2516 97.6007 -39.2516C71.3639 -39.2516 50.0947 -17.9824 50.0947 8.25444C50.0947 34.4913 71.3639 55.7605 97.6007 55.7605Z" fill="#2B62CB"/>
<path d="M97.1365 54.2639C123.416 54.2639 144.72 32.96 144.72 6.68016C144.72 -19.5997 123.416 -40.9037 97.1365 -40.9037C70.8567 -40.9037 49.5527 -19.5997 49.5527 6.68016C49.5527 32.96 70.8567 54.2639 97.1365 54.2639Z" fill="#2A61CB"/>
<path d="M96.6635 52.7691C122.987 52.7691 144.327 31.4294 144.327 5.10558C144.327 -21.2182 122.987 -42.5579 96.6635 -42.5579C70.3397 -42.5579 49 -21.2182 49 5.10558C49 31.4294 70.3397 52.7691 96.6635 52.7691Z" fill="#2960CB"/>
<path d="M96.1739 51.2743C122.541 51.2743 143.915 29.8998 143.915 3.533C143.915 -22.8338 122.541 -44.2083 96.1739 -44.2083C69.8071 -44.2083 48.4326 -22.8338 48.4326 3.533C48.4326 29.8998 69.8071 51.2743 96.1739 51.2743Z" fill="#2860CB"/>
<path d="M95.6733 49.7812C122.084 49.7812 143.494 28.3711 143.494 1.96037C143.494 -24.4504 122.084 -45.8606 95.6733 -45.8606C69.2626 -45.8606 47.8525 -24.4504 47.8525 1.96037C47.8525 28.3711 69.2626 49.7812 95.6733 49.7812Z" fill="#275FCA"/>
<path d="M95.1575 48.2881C121.611 48.2881 143.056 26.8432 143.056 0.38942C143.056 -26.0643 121.611 -47.5093 95.1575 -47.5093C68.7038 -47.5093 47.2588 -26.0643 47.2588 0.38942C47.2588 26.8432 68.7038 48.2881 95.1575 48.2881Z" fill="#265ECA"/>
<path d="M94.6308 46.8006C121.129 46.8006 142.609 25.3199 142.609 -1.17785C142.609 -27.6756 121.129 -49.1562 94.6308 -49.1562C68.1331 -49.1562 46.6523 -27.6756 46.6523 -1.17785C46.6523 25.3199 68.1331 46.8006 94.6308 46.8006Z" fill="#255DCA"/>
<path d="M94.0914 45.3128C120.632 45.3128 142.148 23.7973 142.148 -2.74336C142.148 -29.2841 120.632 -50.7996 94.0914 -50.7996C67.5507 -50.7996 46.0352 -29.2841 46.0352 -2.74336C46.0352 23.7973 67.5507 45.3128 94.0914 45.3128Z" fill="#245DCA"/>
<path d="M93.5371 43.8307C120.122 43.8307 141.673 22.2795 141.673 -4.30513C141.673 -30.8898 120.122 -52.4409 93.5371 -52.4409C66.9524 -52.4409 45.4014 -30.8898 45.4014 -4.30513C45.4014 22.2795 66.9524 43.8307 93.5371 43.8307Z" fill="#235CCA"/>
<path d="M92.9725 42.3522C119.6 42.3522 141.186 20.7662 141.186 -5.86143C141.186 -32.4891 119.6 -54.075 92.9725 -54.075C66.3448 -54.075 44.7588 -32.4891 44.7588 -5.86143C44.7588 20.7662 66.3448 42.3522 92.9725 42.3522Z" fill="#225BC9"/>
<path d="M92.3959 40.8791C119.068 40.8791 140.689 19.2574 140.689 -7.41423C140.689 -34.0859 119.068 -55.7074 92.3959 -55.7074C65.7243 -55.7074 44.1025 -34.0859 44.1025 -7.41423C44.1025 19.2574 65.7243 40.8791 92.3959 40.8791Z" fill="#215AC9"/>
<path d="M91.8077 39.4094C118.522 39.4094 140.179 17.7529 140.179 -8.96168C140.179 -35.6763 118.522 -57.3327 91.8077 -57.3327C65.093 -57.3327 43.4365 -35.6763 43.4365 -8.96168C43.4365 17.7529 65.093 39.4094 91.8077 39.4094Z" fill="#205AC9"/>
<path d="M91.2067 37.9455C117.964 37.9455 139.656 16.2542 139.656 -10.5034C139.656 -37.261 117.964 -58.9523 91.2067 -58.9523C64.4491 -58.9523 42.7578 -37.261 42.7578 -10.5034C42.7578 16.2542 64.4491 37.9455 91.2067 37.9455Z" fill="#1F59C9"/>
<path d="M90.5931 36.4904C117.395 36.4904 139.121 14.7634 139.121 -12.0381C139.121 -38.8397 117.395 -60.5667 90.5931 -60.5667C63.7915 -60.5667 42.0645 -38.8397 42.0645 -12.0381C42.0645 14.7634 63.7915 36.4904 90.5931 36.4904Z" fill="#1E58C8"/>
<path d="M89.9667 35.0407C116.811 35.0407 138.573 13.2789 138.573 -13.5657C138.573 -40.4102 116.811 -62.172 89.9667 -62.172C63.1222 -62.172 41.3604 -40.4102 41.3604 -13.5657C41.3604 13.2789 63.1222 35.0407 89.9667 35.0407Z" fill="#1D57C8"/>
<path d="M89.3314 33.6019C116.22 33.6019 138.017 11.8045 138.017 -15.0841C138.017 -41.9726 116.22 -63.7701 89.3314 -63.7701C62.4429 -63.7701 40.6455 -41.9726 40.6455 -15.0841C40.6455 11.8045 62.4429 33.6019 89.3314 33.6019Z" fill="#1C57C8"/>
<path d="M88.6836 32.1668C115.615 32.1668 137.447 10.3346 137.447 -16.5969C137.447 -43.5284 115.615 -65.3607 88.6836 -65.3607C61.7521 -65.3607 39.9199 -43.5284 39.9199 -16.5969C39.9199 10.3346 61.7521 32.1668 88.6836 32.1668Z" fill="#1B56C8"/>
<path d="M88.0232 30.7443C114.999 30.7443 136.867 8.87631 136.867 -18.0992C136.867 -45.0747 114.999 -66.9425 88.0232 -66.9425C61.0478 -66.9425 39.1797 -45.0747 39.1797 -18.0992C39.1797 8.87631 61.0478 30.7443 88.0232 30.7443Z" fill="#1A55C7"/>
<path d="M87.3539 29.3292C114.372 29.3292 136.275 7.42638 136.275 -19.5921C136.275 -46.6105 114.372 -68.5133 87.3539 -68.5133C60.3355 -68.5133 38.4326 -46.6105 38.4326 -19.5921C38.4326 7.42638 60.3355 29.3292 87.3539 29.3292Z" fill="#1955C7"/>
<path d="M86.6709 27.9267C113.733 27.9267 135.672 5.98817 135.672 -21.0743C135.672 -48.1367 113.733 -70.0751 86.6709 -70.0751C59.6085 -70.0751 37.6699 -48.1367 37.6699 -21.0743C37.6699 5.98817 59.6085 27.9267 86.6709 27.9267Z" fill="#1854C7"/>
<path d="M85.9782 26.5313C113.084 26.5313 135.057 4.55798 135.057 -22.5474C135.057 -49.6529 113.084 -71.6261 85.9782 -71.6261C58.8728 -71.6261 36.8994 -49.6529 36.8994 -22.5474C36.8994 4.55798 58.8728 26.5313 85.9782 26.5313Z" fill="#1753C7"/>
<path d="M85.2745 25.1505C112.424 25.1505 134.433 3.14151 134.433 -24.0079C134.433 -51.1573 112.424 -73.1662 85.2745 -73.1662C58.1251 -73.1662 36.1162 -51.1573 36.1162 -24.0079C36.1162 3.14151 58.1251 25.1505 85.2745 25.1505Z" fill="#1652C6"/>
<path d="M84.5593 23.7787C111.752 23.7787 133.796 1.7349 133.796 -25.4575C133.796 -52.6498 111.752 -74.6936 84.5593 -74.6936C57.3669 -74.6936 35.3232 -52.6498 35.3232 -25.4575C35.3232 1.7349 57.3669 23.7787 84.5593 23.7787Z" fill="#1552C6"/>
<path d="M83.8353 22.4195C111.071 22.4195 133.149 0.340927 133.149 -26.8944C133.149 -54.1298 111.071 -76.2084 83.8353 -76.2084C56.6 -76.2084 34.5215 -54.1298 34.5215 -26.8944C34.5215 0.340927 56.6 22.4195 83.8353 22.4195Z" fill="#1451C6"/>
<path d="M83.0988 21.075C110.378 21.075 132.492 -1.03933 132.492 -28.3187C132.492 -55.598 110.378 -77.7123 83.0988 -77.7123C55.8195 -77.7123 33.7051 -55.598 33.7051 -28.3187C33.7051 -1.03933 55.8195 21.075 83.0988 21.075Z" fill="#1350C6"/>
<path d="M82.3533 19.743C109.676 19.743 131.825 -2.40614 131.825 -29.7284C131.825 -57.0507 109.676 -79.1998 82.3533 -79.1998C55.031 -79.1998 32.8818 -57.0507 32.8818 -29.7284C32.8818 -2.40614 55.031 19.743 82.3533 19.743Z" fill="#124FC5"/>
<path d="M81.5971 18.4253C108.963 18.4253 131.148 -3.75949 131.148 -31.1258C131.148 -58.4921 108.963 -80.6768 81.5971 -80.6768C54.2308 -80.6768 32.0459 -58.4921 32.0459 -31.1258C32.0459 -3.75949 54.2308 18.4253 81.5971 18.4253Z" fill="#114FC5"/>
<path d="M80.8309 17.1223C108.24 17.1223 130.46 -5.09731 130.46 -32.5066C130.46 -59.9158 108.24 -82.1354 80.8309 -82.1354C53.4217 -82.1354 31.2021 -59.9158 31.2021 -32.5066C31.2021 -5.09731 53.4217 17.1223 80.8309 17.1223Z" fill="#104EC5"/>
<path d="M80.0552 15.8375C107.508 15.8375 129.764 -6.41775 129.764 -33.871C129.764 -61.3242 107.508 -83.5795 80.0552 -83.5795C52.6019 -83.5795 30.3467 -61.3242 30.3467 -33.871C30.3467 -6.41775 52.6019 15.8375 80.0552 15.8375Z" fill="#0F4DC5"/>
<path d="M79.2696 14.5653C106.766 14.5653 129.056 -7.72485 129.056 -35.2211C129.056 -62.7173 106.766 -85.0074 79.2696 -85.0074C51.7734 -85.0074 29.4834 -62.7173 29.4834 -35.2211C29.4834 -7.72485 51.7734 14.5653 79.2696 14.5653Z" fill="#0E4CC4"/>
<path d="M78.4734 13.311C106.014 13.311 128.339 -9.0148 128.339 -36.555C128.339 -64.0952 106.014 -86.4209 78.4734 -86.4209C50.9332 -86.4209 28.6074 -64.0952 28.6074 -36.555C28.6074 -9.0148 50.9332 13.311 78.4734 13.311Z" fill="#0D4CC4"/>
<path d="M77.6675 12.0731C105.251 12.0731 127.611 -10.2876 127.611 -37.8707C127.611 -65.4539 105.251 -87.8145 77.6675 -87.8145C50.0843 -87.8145 27.7236 -65.4539 27.7236 -37.8707C27.7236 -10.2876 50.0843 12.0731 77.6675 12.0731Z" fill="#0C4BC4"/>
<path d="M76.8515 10.8535C104.479 10.8535 126.875 -11.5428 126.875 -39.1699C126.875 -66.7971 104.479 -89.1934 76.8515 -89.1934C49.2244 -89.1934 26.8281 -66.7971 26.8281 -39.1699C26.8281 -11.5428 49.2244 10.8535 76.8515 10.8535Z" fill="#0B4AC4"/>
<path d="M76.0279 9.65176C103.698 9.65176 126.129 -12.7794 126.129 -40.4495C126.129 -68.1196 103.698 -90.5507 76.0279 -90.5507C48.3578 -90.5507 25.9268 -68.1196 25.9268 -40.4495C25.9268 -12.7794 48.3578 9.65176 76.0279 9.65176Z" fill="#0A49C3"/>
<path d="M75.1936 8.46818C102.907 8.46818 125.373 -13.9977 125.373 -41.7109C125.373 -69.424 102.907 -91.8899 75.1936 -91.8899C47.4805 -91.8899 25.0146 -69.424 25.0146 -41.7109C25.0146 -13.9977 47.4805 8.46818 75.1936 8.46818Z" fill="#0949C3"/>
<path d="M74.3524 7.30631C102.109 7.30631 124.611 -15.1953 124.611 -42.9523C124.611 -70.7094 102.109 -93.211 74.3524 -93.211C46.5953 -93.211 24.0938 -70.7094 24.0938 -42.9523C24.0938 -15.1953 46.5953 7.30631 74.3524 7.30631Z" fill="#0848C3"/>
<path d="M73.4997 6.16254C101.3 6.16254 123.836 -16.3738 123.836 -44.1739C123.836 -71.9739 101.3 -94.5104 73.4997 -94.5104C45.6996 -94.5104 23.1631 -71.9739 23.1631 -44.1739C23.1631 -16.3738 45.6996 6.16254 73.4997 6.16254Z" fill="#0747C3"/>
<path d="M72.6398 5.04218C100.484 5.04218 123.056 -17.5299 123.056 -45.3739C123.056 -73.218 100.484 -95.79 72.6398 -95.79C44.7957 -95.79 22.2236 -73.218 22.2236 -45.3739C22.2236 -17.5299 44.7957 5.04218 72.6398 5.04218Z" fill="#0646C2"/>
<path d="M71.7714 3.94004C99.6584 3.94004 122.265 -18.6669 122.265 -46.5539C122.265 -74.441 99.6584 -97.0478 71.7714 -97.0478C43.8844 -97.0478 21.2773 -74.441 21.2773 -46.5539C21.2773 -18.6669 43.8844 3.94004 71.7714 3.94004Z" fill="#0546C2"/>
<path d="M70.8939 2.86157C98.8249 2.86157 121.467 -19.781 121.467 -47.712C121.467 -75.643 98.8249 -98.2855 70.8939 -98.2855C42.9629 -98.2855 20.3203 -75.643 20.3203 -47.712C20.3203 -19.781 42.9629 2.86157 70.8939 2.86157Z" fill="#0445C2"/>
<path d="M70.0068 1.80463C97.9808 1.80463 120.658 -20.8728 120.658 -48.8468C120.658 -76.8208 97.9808 -99.4982 70.0068 -99.4982C42.0328 -99.4982 19.3555 -76.8208 19.3555 -48.8468C19.3555 -20.8728 42.0328 1.80463 70.0068 1.80463Z" fill="#0344C2"/>
<path d="M69.1129 0.77298C97.1309 0.77298 119.844 -21.94 119.844 -49.958C119.844 -77.976 97.1309 -100.689 69.1129 -100.689C41.0949 -100.689 18.3818 -77.976 18.3818 -49.958C18.3818 -21.94 41.0949 0.77298 69.1129 0.77298Z" fill="#0243C1"/>
</g>
<defs>
<clipPath id="clip0_92_2">
<rect width="289" height="300" fill="white"/>
</clipPath>
</defs>
</svg>
