<svg width="40" height="40" viewBox="0 0 40 40" fill="none" xmlns="http://www.w3.org/2000/svg">
<g clip-path="url(#clip0_6846_165118)">
<mask id="mask0_6846_165118" style="mask-type:luminance" maskUnits="userSpaceOnUse" x="0" y="0" width="40" height="40">
<path fill-rule="evenodd" clip-rule="evenodd" d="M0 40H40V-3.8147e-06H0V40Z" fill="white"/>
</mask>
<g mask="url(#mask0_6846_165118)">
<mask id="mask1_6846_165118" style="mask-type:luminance" maskUnits="userSpaceOnUse" x="0" y="0" width="40" height="40">
<path fill-rule="evenodd" clip-rule="evenodd" d="M0 -3.8147e-06V40H40V-3.8147e-06H0Z" fill="white"/>
</mask>
<g mask="url(#mask1_6846_165118)">
<path d="M33.7501 32.8232C33.2716 33.4807 32.4659 33.8737 31.5936 33.8737H22.5449L23.7289 32.0306C23.9048 31.7539 23.9503 31.4259 23.8559 31.1021L21.4544 23.1041C22.7976 22.7526 23.9464 21.9217 24.6633 20.7301C24.9888 20.1922 25.6088 19.8577 26.2826 19.8577H28.5288C29.6633 19.8577 30.6788 20.5404 30.9978 21.5171L34.0609 30.9271C34.2743 31.5797 34.1634 32.2536 33.7501 32.8232ZM20.0294 34.7062L17.8143 31.3452L20.0001 24.0544L22.1893 31.3429L20.0294 34.7062ZM35.6463 30.4111L32.5831 21.0002C32.0346 19.3197 30.4054 18.1911 28.5288 18.1911H26.2826C25.0278 18.1911 23.8608 18.8339 23.2358 19.8699C22.5733 20.9701 21.3624 21.6269 19.9968 21.6277C18.6313 21.6277 17.4188 20.9701 16.7563 19.8699C16.1329 18.8347 14.9659 18.1911 13.7094 18.1911H11.4649C9.58667 18.1911 7.95744 19.3206 7.41057 21.0011L4.34579 30.4111C3.97959 31.5341 4.1814 32.7459 4.9008 33.7354C5.72112 34.8659 7.07529 35.5404 8.52385 35.5404H11.5675C12.0281 35.5404 12.4008 35.1677 12.4008 34.7071C12.4008 34.2466 12.0281 33.8737 11.5675 33.8737H8.52385C7.6075 33.8737 6.7579 33.4562 6.25009 32.7564C5.84155 32.1957 5.72922 31.5464 5.93107 30.9271L8.99585 21.5171C9.31324 20.5396 10.3289 19.8577 11.4649 19.8577H13.7094C14.3849 19.8577 15.005 20.1914 15.3272 20.7301C16.0474 21.9241 17.1986 22.7562 18.5451 23.1066L16.1443 31.1092C16.0466 31.4299 16.0971 31.7652 16.2859 32.0557L18.9536 36.1036C19.1846 36.4567 19.5883 36.6667 20.0326 36.6667H20.0376C20.4834 36.6651 20.8871 36.4519 21.1183 36.0947L21.4743 35.5404H31.5936C32.9981 35.5404 34.3084 34.8911 35.0994 33.8022C35.8236 32.8036 36.0223 31.5674 35.6463 30.4111Z" fill="black"/>
</g>
<mask id="mask2_6846_165118" style="mask-type:luminance" maskUnits="userSpaceOnUse" x="0" y="0" width="40" height="40">
<path fill-rule="evenodd" clip-rule="evenodd" d="M0 -3.8147e-06V40H40V-3.8147e-06H0Z" fill="white"/>
</mask>
<g mask="url(#mask2_6846_165118)">
<path d="M20 5C22.9477 5 25.345 7.21842 25.345 9.94465C25.345 12.8515 22.8288 16.5397 20 16.5397C17.1712 16.5397 14.6549 12.8515 14.6549 9.94465C14.6549 7.21842 17.0523 5 20 5ZM20 18.2063C23.8835 18.2063 27.0117 13.6865 27.0117 9.94465C27.0117 6.29882 23.8655 3.33333 20 3.33333C16.1344 3.33333 12.9883 6.29882 12.9883 9.94465C12.9883 13.6865 16.1165 18.2063 20 18.2063Z" fill="black"/>
</g>
<mask id="mask3_6846_165118" style="mask-type:luminance" maskUnits="userSpaceOnUse" x="0" y="0" width="40" height="40">
<path fill-rule="evenodd" clip-rule="evenodd" d="M0 -3.8147e-06V40H40V-3.8147e-06H0Z" fill="white"/>
</mask>
<g mask="url(#mask3_6846_165118)">
<path d="M29.4665 26.2884H25.7279C25.2674 26.2884 24.8945 26.6611 24.8945 27.1217C24.8945 27.5822 25.2674 27.9551 25.7279 27.9551H29.4665C29.9272 27.9551 30.2999 27.5822 30.2999 27.1217C30.2999 26.6611 29.9272 26.2884 29.4665 26.2884Z" fill="black"/>
</g>
</g>
</g>
<defs>
<clipPath id="clip0_6846_165118">
<rect width="40" height="40" fill="white"/>
</clipPath>
</defs>
</svg>
