<svg width="40" height="40" viewBox="0 0 40 40" fill="none" xmlns="http://www.w3.org/2000/svg">
<g clip-path="url(#clip0_6846_165119)">
<mask id="mask0_6846_165119" style="mask-type:luminance" maskUnits="userSpaceOnUse" x="0" y="0" width="40" height="40">
<path fill-rule="evenodd" clip-rule="evenodd" d="M0 40H40V-3.8147e-06H0V40Z" fill="white"/>
</mask>
<g mask="url(#mask0_6846_165119)">
<mask id="mask1_6846_165119" style="mask-type:luminance" maskUnits="userSpaceOnUse" x="0" y="0" width="40" height="40">
<path fill-rule="evenodd" clip-rule="evenodd" d="M0 -3.8147e-06V40H40V-3.8147e-06H0Z" fill="white"/>
</mask>
<g mask="url(#mask1_6846_165119)">
<path d="M35.0003 28.3334H33.4655V16.8807H35.0003C35.3552 16.8807 35.6708 16.6562 35.7882 16.3217C35.9037 15.9864 35.7962 15.6145 35.5178 15.3948L20.5325 3.51411C20.2298 3.27321 19.8002 3.27321 19.4973 3.51411L4.51041 15.3948C4.23209 15.6145 4.12468 15.9864 4.24024 16.3217C4.35743 16.6562 4.67318 16.8807 5.02799 16.8807H7.36849C7.82911 16.8807 8.20183 16.5081 8.20183 16.0475C8.20183 15.6039 7.85514 15.2418 7.41894 15.2158L20.015 5.23041L32.6078 15.2141C32.1585 15.2272 31.7988 15.595 31.7988 16.0475V29.1667C31.7988 29.6274 32.1715 30.0001 32.6322 30.0001H34.167V35.0001H5.83366V30.0001H7.36849C7.82911 30.0001 8.20183 29.6274 8.20183 29.1667V22.5001C8.20183 22.0396 7.82911 21.6667 7.36849 21.6667C6.90788 21.6667 6.53516 22.0396 6.53516 22.5001V28.3334H5.00033C4.53971 28.3334 4.16699 28.7062 4.16699 29.1667V35.8334C4.16699 36.2941 4.53971 36.6667 5.00033 36.6667H35.0003C35.461 36.6667 35.8337 36.2941 35.8337 35.8334V29.1667C35.8337 28.7062 35.461 28.3334 35.0003 28.3334Z" fill="black"/>
</g>
<mask id="mask2_6846_165119" style="mask-type:luminance" maskUnits="userSpaceOnUse" x="0" y="0" width="40" height="40">
<path fill-rule="evenodd" clip-rule="evenodd" d="M0 -3.8147e-06V40H40V-3.8147e-06H0Z" fill="white"/>
</mask>
<g mask="url(#mask2_6846_165119)">
<path d="M20 11.6666C19.541 11.6666 19.1667 11.2931 19.1667 10.8333C19.1667 10.3735 19.541 9.99992 20 9.99992C20.459 9.99992 20.8333 10.3735 20.8333 10.8333C20.8333 11.2931 20.459 11.6666 20 11.6666ZM22.5 10.8333C22.5 9.45467 21.3785 8.33325 20 8.33325C18.6215 8.33325 17.5 9.45467 17.5 10.8333C17.5 12.2118 18.6215 13.3333 20 13.3333C21.3785 13.3333 22.5 12.2118 22.5 10.8333Z" fill="black"/>
</g>
<mask id="mask3_6846_165119" style="mask-type:luminance" maskUnits="userSpaceOnUse" x="0" y="0" width="40" height="40">
<path fill-rule="evenodd" clip-rule="evenodd" d="M0 -3.8147e-06V40H40V-3.8147e-06H0Z" fill="white"/>
</mask>
<g mask="url(#mask3_6846_165119)">
<path d="M14.1159 27.4999V17.4999C14.1159 17.0394 13.7432 16.6666 13.2826 16.6666C12.8219 16.6666 12.4492 17.0394 12.4492 17.4999V27.4999C12.4492 27.9606 12.8219 28.3333 13.2826 28.3333C13.7432 28.3333 14.1159 27.9606 14.1159 27.4999Z" fill="black"/>
</g>
<mask id="mask4_6846_165119" style="mask-type:luminance" maskUnits="userSpaceOnUse" x="0" y="0" width="40" height="40">
<path fill-rule="evenodd" clip-rule="evenodd" d="M0 -3.8147e-06V40H40V-3.8147e-06H0Z" fill="white"/>
</mask>
<g mask="url(#mask4_6846_165119)">
<path d="M19.167 17.4999V27.4999C19.167 27.9606 19.5397 28.3333 20.0003 28.3333C20.461 28.3333 20.8337 27.9606 20.8337 27.4999V17.4999C20.8337 17.0394 20.461 16.6666 20.0003 16.6666C19.5397 16.6666 19.167 17.0394 19.167 17.4999Z" fill="black"/>
</g>
<mask id="mask5_6846_165119" style="mask-type:luminance" maskUnits="userSpaceOnUse" x="0" y="0" width="40" height="40">
<path fill-rule="evenodd" clip-rule="evenodd" d="M0 -3.8147e-06V40H40V-3.8147e-06H0Z" fill="white"/>
</mask>
<g mask="url(#mask5_6846_165119)">
<path d="M27.5505 27.4999V17.4999C27.5505 17.0394 27.1776 16.6666 26.7171 16.6666C26.2565 16.6666 25.8838 17.0394 25.8838 17.4999V27.4999C25.8838 27.9606 26.2565 28.3333 26.7171 28.3333C27.1776 28.3333 27.5505 27.9606 27.5505 27.4999Z" fill="black"/>
</g>
</g>
</g>
<defs>
<clipPath id="clip0_6846_165119">
<rect width="40" height="40" fill="white"/>
</clipPath>
</defs>
</svg>
