<svg width="343" height="319" viewBox="0 0 343 319" fill="none" xmlns="http://www.w3.org/2000/svg">
<g clip-path="url(#clip0_562_33360)">
<path d="M389.111 104.592C415.756 104.771 437.502 83.3156 437.681 56.6702C437.86 30.0249 416.404 8.27942 389.759 8.10044C363.113 7.92146 341.367 29.3767 341.189 56.0221C341.01 82.6675 362.465 104.413 389.111 104.592Z" fill="#DCE8F9"/>
<path d="M384.831 105.518C411.485 105.697 433.238 84.2347 433.417 57.581C433.596 30.9272 412.133 9.17496 385.479 8.99593C358.826 8.81689 337.073 30.2789 336.894 56.9326C336.715 83.5864 358.177 105.339 384.831 105.518Z" fill="#DBE8F9"/>
<path d="M380.591 106.444C407.254 106.623 429.013 85.1541 429.192 58.492C429.371 31.8298 407.902 10.0707 381.24 9.89166C354.578 9.71257 332.818 31.1813 332.639 57.8434C332.46 84.5055 353.929 106.265 380.591 106.444Z" fill="#DBE8F9"/>
<path d="M376.391 107.373C403.06 107.552 424.825 86.0781 425.004 59.4093C425.183 32.7405 403.709 10.976 377.04 10.7968C350.371 10.6177 328.606 32.0918 328.427 58.7606C328.248 85.4294 349.722 107.194 376.391 107.373Z" fill="#DAE7F9"/>
<path d="M372.233 108.306C398.91 108.485 420.682 87.0043 420.861 60.3271C421.04 33.6499 399.559 11.8785 372.882 11.6993C346.205 11.5201 324.433 33.001 324.254 59.6782C324.075 86.3554 345.556 108.127 372.233 108.306Z" fill="#DAE7F9"/>
<path d="M368.114 109.242C394.8 109.421 416.578 87.9336 416.758 61.2481C416.937 34.5625 395.449 12.7843 368.763 12.6051C342.078 12.4258 320.299 33.9134 320.12 60.599C319.941 87.2845 341.429 109.063 368.114 109.242Z" fill="#D9E6F8"/>
<path d="M364.035 110.175C390.728 110.354 412.511 88.8615 412.691 62.1693C412.87 35.477 391.377 13.6933 364.684 13.514C337.992 13.3347 316.208 34.8277 316.029 61.52C315.849 88.2122 337.343 109.996 364.035 110.175Z" fill="#D9E6F8"/>
<path d="M359.998 111.118C386.699 111.297 408.49 89.7976 408.669 63.097C408.849 36.3964 387.349 14.6059 360.648 14.4265C333.947 14.2472 312.156 35.7469 311.977 62.4475C311.798 89.1481 333.298 110.939 359.998 111.118Z" fill="#D8E5F8"/>
<path d="M356.001 112.061C382.71 112.24 404.508 90.7338 404.687 64.0248C404.866 37.3158 383.36 15.5185 356.651 15.3391C329.941 15.1597 308.144 36.6661 307.964 63.3751C307.785 90.0841 329.292 111.881 356.001 112.061Z" fill="#D8E5F8"/>
<path d="M352.043 113.007C378.76 113.187 400.565 91.6734 400.744 64.956C400.924 38.2387 379.41 16.4345 352.693 16.2551C325.975 16.0756 304.171 37.5888 303.991 64.3061C303.812 91.0235 325.325 112.828 352.043 113.007Z" fill="#D7E5F8"/>
<path d="M348.124 113.954C374.848 114.133 396.658 92.6144 396.838 65.8904C397.017 39.1663 375.498 17.3567 348.774 17.1772C322.05 16.9977 300.24 38.5163 300.061 65.2403C299.881 91.9644 321.4 113.774 348.124 113.954Z" fill="#D7E4F8"/>
<path d="M344.245 114.903C370.977 115.083 392.794 93.5575 392.973 66.8251C393.153 40.0927 371.628 18.2762 344.895 18.0967C318.162 17.9171 296.346 39.4424 296.166 66.1748C295.987 92.9073 317.512 114.724 344.245 114.903Z" fill="#D6E4F8"/>
<path d="M340.405 115.856C367.146 116.036 388.969 94.5038 389.149 67.7631C389.328 41.0223 367.796 19.199 341.055 19.0194C314.314 18.8398 292.491 40.3718 292.311 67.1126C292.132 93.8534 313.664 115.677 340.405 115.856Z" fill="#D6E3F7"/>
<path d="M336.604 116.813C363.354 116.992 385.184 95.4534 385.364 68.7043C385.543 41.9551 364.004 20.125 337.255 19.9453C310.506 19.7657 288.675 41.3045 288.496 68.0536C288.316 94.8027 309.855 116.633 336.604 116.813Z" fill="#D5E3F7"/>
<path d="M332.84 117.769C359.596 117.949 381.432 96.4047 381.612 69.6489C381.791 42.893 360.247 21.0574 333.491 20.8777C306.735 20.698 284.899 42.2422 284.719 68.998C284.54 95.7539 306.084 117.589 332.84 117.769Z" fill="#D4E3F7"/>
<path d="M329.115 118.729C355.879 118.909 377.722 97.358 377.902 70.5938C378.082 43.8296 356.53 21.9872 329.766 21.8074C303.002 21.6276 281.159 43.1785 280.979 69.9427C280.8 96.707 302.351 118.549 329.115 118.729Z" fill="#D4E2F7"/>
<path d="M325.43 119.692C352.202 119.872 374.052 98.3143 374.232 71.5417C374.412 44.7691 352.854 22.9199 326.081 22.74C299.308 22.5602 277.459 44.1179 277.279 70.8905C277.099 97.663 298.657 119.512 325.43 119.692Z" fill="#D3E2F7"/>
<path d="M321.78 120.656C348.56 120.836 370.415 99.2725 370.595 72.4933C370.775 45.714 349.211 23.8593 322.432 23.6794C295.652 23.4995 273.798 45.0626 273.618 71.8419C273.438 98.6211 295.001 120.476 321.78 120.656Z" fill="#D3E1F7"/>
<path d="M318.171 121.622C344.959 121.802 366.82 100.233 367 73.4449C367.18 46.6573 345.61 24.7957 318.822 24.6158C292.035 24.4358 270.173 46.0056 269.993 72.7933C269.813 99.5809 291.383 121.442 318.171 121.622Z" fill="#D2E1F6"/>
<path d="M314.597 122.592C341.394 122.772 363.262 101.196 363.442 74.3997C363.622 47.6038 342.045 25.7354 315.249 25.5554C288.453 25.3754 266.585 46.9519 266.405 73.7479C266.225 100.544 287.801 122.412 314.597 122.592Z" fill="#D2E0F6"/>
<path d="M311.063 123.566C337.868 123.746 359.743 102.162 359.923 75.3581C360.103 48.5537 338.52 26.6785 311.715 26.4985C284.911 26.3184 263.035 47.9017 262.855 74.7061C262.675 101.51 284.259 123.386 311.063 123.566Z" fill="#D1E0F6"/>
<path d="M307.566 124.536C334.377 124.716 356.258 103.127 356.438 76.3163C356.618 49.5052 335.029 27.6246 308.218 27.4445C281.407 27.2644 259.526 48.8531 259.346 75.6641C259.166 102.475 280.755 124.356 307.566 124.536Z" fill="#D1E0F6"/>
<path d="M304.104 125.513C330.924 125.693 352.812 104.098 352.992 77.2781C353.172 50.4587 331.576 28.5712 304.757 28.3911C277.937 28.2109 256.05 49.8063 255.869 76.6258C255.689 103.445 277.285 125.333 304.104 125.513Z" fill="#D0DFF6"/>
<path d="M300.683 126.493C327.511 126.673 349.405 105.071 349.585 78.2431C349.766 51.4153 328.163 29.521 301.335 29.3408C274.507 29.1606 252.613 50.7628 252.433 77.5906C252.252 104.418 273.855 126.313 300.683 126.493Z" fill="#D0DFF6"/>
<path d="M297.294 127.473C324.13 127.654 346.032 106.045 346.212 79.2084C346.392 52.3723 324.783 30.4711 297.947 30.2909C271.111 30.1106 249.209 51.7195 249.029 78.5557C248.849 105.392 270.458 127.293 297.294 127.473Z" fill="#CFDEF6"/>
<path d="M293.945 128.454C320.788 128.634 342.695 107.02 342.875 80.1771C343.055 53.3342 321.441 31.4276 294.598 31.2473C267.755 31.067 245.848 52.6813 245.668 79.5241C245.487 106.367 267.102 128.274 293.945 128.454Z" fill="#CFDEF5"/>
<path d="M290.629 129.441C317.48 129.621 339.394 108 339.574 81.1488C339.755 54.2976 318.134 32.3841 291.282 32.2038C264.431 32.0234 242.517 53.6444 242.337 80.4956C242.156 107.347 263.778 129.26 290.629 129.441Z" fill="#CEDDF5"/>
<path d="M287.352 130.428C314.212 130.608 336.132 108.981 336.313 82.121C336.493 55.2614 314.865 33.3411 288.006 33.1607C261.146 32.9803 239.225 54.608 239.045 81.4676C238.864 108.327 260.492 130.248 287.352 130.428Z" fill="#CEDDF5"/>
<path d="M284.109 131.415C310.976 131.596 332.901 109.963 333.082 83.0963C333.262 56.23 311.629 34.3043 284.763 34.1238C257.896 33.9434 235.97 55.5765 235.79 82.4428C235.609 109.309 257.243 131.235 284.109 131.415Z" fill="#CDDDF5"/>
<path d="M280.902 132.406C307.777 132.587 329.71 110.947 329.89 84.072C330.071 57.1973 308.431 35.2648 281.556 35.0842C254.681 34.9037 232.748 56.5436 232.568 83.4183C232.387 110.293 254.027 132.225 280.902 132.406Z" fill="#CDDCF5"/>
<path d="M277.732 133.4C304.615 133.58 326.555 111.934 326.735 85.0508C326.916 58.1678 305.269 36.2284 278.386 36.0478C251.503 35.8673 229.563 57.5139 229.383 84.3969C229.202 111.28 250.849 133.219 277.732 133.4Z" fill="#CCDCF5"/>
<path d="M274.595 134.397C301.486 134.578 323.433 112.924 323.613 86.0329C323.794 59.1415 302.14 37.1953 275.249 37.0146C248.357 36.834 226.411 58.4873 226.23 85.3787C226.05 112.27 247.703 134.216 274.595 134.397Z" fill="#CBDBF5"/>
<path d="M271.494 135.391C298.392 135.572 320.344 113.913 320.525 87.0151C320.705 60.117 299.047 38.1653 272.148 37.9846C245.25 37.8039 223.298 59.4627 223.117 86.3608C222.937 113.259 244.596 135.211 271.494 135.391Z" fill="#CBDBF4"/>
<path d="M268.429 136.392C295.336 136.573 317.295 114.907 317.475 88.0008C317.656 61.0944 295.99 39.1358 269.084 38.9551C242.177 38.7744 220.218 60.4399 220.038 87.3463C219.857 114.253 241.523 136.211 268.429 136.392Z" fill="#CADAF4"/>
<path d="M265.398 137.393C292.313 137.574 314.279 115.901 314.46 88.9866C314.64 62.0717 292.968 40.1064 266.053 39.9256C239.138 39.7448 217.173 61.417 216.992 88.3319C216.811 115.247 238.483 137.212 265.398 137.393Z" fill="#CADAF4"/>
<path d="M262.4 138.397C289.324 138.578 311.296 116.899 311.477 89.9757C311.658 63.0525 289.979 41.0804 263.055 40.8995C236.132 40.7187 214.159 62.3976 213.979 89.3208C213.798 116.244 235.477 138.216 262.4 138.397Z" fill="#C9DAF4"/>
<path d="M259.436 139.398C286.366 139.579 308.344 117.895 308.525 90.9651C308.706 64.0352 287.021 42.0576 260.091 41.8767C233.161 41.6958 211.183 63.3801 211.002 90.31C210.821 117.24 232.506 139.218 259.436 139.398Z" fill="#C9D9F4"/>
<path d="M256.508 140.406C283.446 140.587 305.431 118.896 305.612 91.9577C305.793 65.0194 284.102 43.0349 257.163 42.854C230.225 42.6731 208.24 64.3641 208.059 91.3024C207.878 118.241 229.569 140.225 256.508 140.406Z" fill="#C8D9F4"/>
<path d="M253.613 141.417C280.56 141.598 302.551 119.9 302.732 92.9535C302.913 66.0069 281.215 44.0156 254.268 43.8346C227.322 43.6536 205.33 65.3514 205.149 92.298C204.968 119.245 226.666 141.236 253.613 141.417Z" fill="#C8D8F4"/>
<path d="M250.754 142.425C277.708 142.606 299.705 120.903 299.886 93.9497C300.067 66.9964 278.364 44.9996 251.41 44.8186C224.457 44.6376 202.46 66.3408 202.279 93.2941C202.098 120.247 223.801 142.244 250.754 142.425Z" fill="#C7D8F3"/>
<path d="M247.926 143.437C274.888 143.618 296.892 121.908 297.073 94.946C297.254 67.9843 275.544 45.9807 248.582 45.7996C221.62 45.6185 199.616 67.3284 199.435 94.2901C199.254 121.252 220.964 143.255 247.926 143.437Z" fill="#C7D7F3"/>
<path d="M245.131 144.451C272.102 144.632 294.112 122.915 294.293 95.9454C294.475 68.9753 272.758 46.9649 245.787 46.7838C218.817 46.6026 196.807 68.3193 196.625 95.2894C196.444 122.259 218.161 144.27 245.131 144.451Z" fill="#C6D7F3"/>
<path d="M242.37 145.469C269.349 145.65 291.366 123.927 291.547 96.9484C291.728 69.9699 270.005 47.9527 243.026 47.7715C216.047 47.5903 194.03 69.3137 193.849 96.2921C193.668 123.271 215.391 145.288 242.37 145.469Z" fill="#C6D7F3"/>
<path d="M239.642 146.484C266.627 146.665 288.65 124.936 288.831 97.9514C289.012 70.9662 267.283 48.9435 240.298 48.7623C213.313 48.581 191.29 70.3098 191.109 97.295C190.927 124.28 212.656 146.303 239.642 146.484Z" fill="#C5D6F3"/>
<path d="M236.947 147.502C263.94 147.684 285.97 125.948 286.151 98.9548C286.333 71.9613 264.597 49.9317 237.603 49.7504C210.61 49.5691 188.58 71.3047 188.399 98.2981C188.217 125.292 209.953 147.321 236.947 147.502Z" fill="#C5D6F3"/>
<path d="M234.285 148.524C261.287 148.705 283.324 126.963 283.505 99.961C283.687 72.9591 261.944 50.9227 234.942 50.7414C207.94 50.56 185.904 72.3023 185.722 99.3041C185.541 126.306 207.283 148.342 234.285 148.524Z" fill="#C4D5F3"/>
<path d="M231.654 149.546C258.663 149.727 280.705 127.979 280.886 100.971C281.068 73.9623 259.32 51.9205 232.311 51.7391C205.302 51.5577 183.26 73.3053 183.079 100.314C182.897 127.322 204.645 149.364 231.654 149.546Z" fill="#C4D5F2"/>
<path d="M229.056 150.571C256.073 150.752 278.122 128.998 278.304 101.981C278.485 74.9639 256.73 52.9153 229.713 52.7338C202.696 52.5523 180.647 74.3068 180.466 101.324C180.284 128.341 202.039 150.389 229.056 150.571Z" fill="#C3D5F2"/>
<path d="M226.488 151.596C253.514 151.777 275.57 130.016 275.751 102.991C275.933 75.9657 254.171 53.9102 227.146 53.7287C200.12 53.5471 178.065 75.3083 177.883 102.334C177.702 129.359 199.463 151.414 226.488 151.596Z" fill="#C3D4F2"/>
<path d="M223.954 152.625C250.988 152.806 273.05 131.038 273.232 104.005C273.413 76.9709 251.645 54.9086 224.612 54.727C197.578 54.5454 175.515 76.3133 175.334 103.347C175.152 130.381 196.92 152.443 223.954 152.625Z" fill="#C2D4F2"/>
<path d="M221.45 153.653C248.491 153.835 270.559 132.061 270.74 105.021C270.922 77.9806 249.149 55.9129 222.108 55.7312C195.067 55.5496 172.999 77.3229 172.818 104.363C172.636 131.404 194.41 153.471 221.45 153.653Z" fill="#C1D3F2"/>
<path d="M218.976 154.682C246.025 154.864 268.1 133.084 268.282 106.035C268.463 78.9863 246.683 56.9117 219.634 56.73C192.585 56.5483 170.511 78.3283 170.329 105.377C170.147 132.426 191.927 154.5 218.976 154.682Z" fill="#C1D3F2"/>
<path d="M216.536 155.717C243.593 155.899 265.675 134.112 265.857 107.055C266.038 79.9981 244.251 57.9166 217.194 57.7349C190.137 57.5532 168.055 79.3399 167.873 106.397C167.692 133.454 189.479 155.536 216.536 155.717Z" fill="#C0D2F2"/>
<path d="M214.126 156.749C241.192 156.931 263.28 135.138 263.462 108.072C263.644 81.0068 241.85 58.9185 214.784 58.7367C187.719 58.5549 165.63 80.3484 165.448 107.414C165.267 134.479 187.06 156.568 214.126 156.749Z" fill="#C0D2F1"/>
<path d="M211.746 157.782C238.818 157.964 260.912 136.165 261.094 109.093C261.276 82.0206 239.477 59.9269 212.405 59.745C185.332 59.5632 163.238 81.3621 163.057 108.434C162.875 135.506 184.674 157.6 211.746 157.782Z" fill="#BFD2F1"/>
<path d="M209.396 158.821C236.477 159.003 258.578 137.197 258.76 110.117C258.942 83.0363 237.136 60.9357 210.055 60.7538C182.974 60.5719 160.874 82.3775 160.692 109.458C160.51 136.539 182.316 158.639 209.396 158.821Z" fill="#BFD1F1"/>
<path d="M207.077 159.86C234.166 160.042 256.274 138.23 256.456 111.141C256.638 84.0518 234.825 61.9444 207.736 61.7624C180.647 61.5805 158.54 83.3929 158.358 110.482C158.176 137.571 179.988 159.678 207.077 159.86Z" fill="#BED1F1"/>
<path d="M204.791 160.896C231.887 161.078 254 139.26 254.182 112.165C254.364 85.0692 232.546 62.9563 205.45 62.7743C178.355 62.5923 156.242 84.4101 156.06 111.506C155.878 138.601 177.696 160.714 204.791 160.896Z" fill="#BED0F1"/>
<path d="M202.533 161.938C229.637 162.121 251.757 140.296 251.939 113.192C252.121 86.0881 230.296 63.9684 203.192 63.7864C176.088 63.6043 153.968 85.4288 153.786 112.533C153.604 139.637 175.429 161.756 202.533 161.938Z" fill="#BDD0F1"/>
<path d="M200.301 162.981C227.414 163.163 249.54 141.332 249.722 114.22C249.905 87.1076 228.073 64.981 200.961 64.7989C173.848 64.6168 151.722 86.4481 151.539 113.56C151.357 140.673 173.189 162.799 200.301 162.981Z" fill="#BDCFF0"/>
<path d="M198.103 164.024C225.224 164.206 247.358 142.368 247.54 115.248C247.722 88.1269 225.884 65.9935 198.763 65.8114C171.642 65.6292 149.509 87.4672 149.327 114.588C149.144 141.709 170.982 163.842 198.103 164.024Z" fill="#BCCFF0"/>
<path d="M195.932 165.067C223.06 165.249 245.199 143.406 245.381 116.279C245.563 89.1513 223.72 67.0125 196.592 66.8302C169.465 66.648 147.326 88.4914 147.144 115.619C146.961 142.746 168.805 164.885 195.932 165.067Z" fill="#BCCFF0"/>
<path d="M193.792 166.114C220.928 166.296 243.074 144.446 243.256 117.31C243.438 90.1742 221.588 68.0286 194.452 67.8463C167.316 67.6641 145.17 89.5142 144.988 116.65C144.806 143.786 166.656 165.931 193.792 166.114Z" fill="#BBCEF0"/>
<path d="M191.679 167.163C218.823 167.345 240.976 145.488 241.158 118.344C241.34 91.2 219.483 69.0476 192.339 68.8652C165.195 68.6829 143.042 90.5397 142.86 117.684C142.677 144.828 164.534 166.98 191.679 167.163Z" fill="#BBCEF0"/>
<path d="M189.596 168.21C216.749 168.392 238.908 146.528 239.091 119.376C239.273 92.2234 217.409 70.0641 190.257 69.8818C163.104 69.6994 140.944 91.5629 140.762 118.715C140.58 145.868 162.443 168.027 189.596 168.21Z" fill="#BACDF0"/>
<path d="M187.54 169.259C214.7 169.442 236.864 147.573 237.047 120.414C237.229 93.2545 215.36 71.0897 188.201 70.9073C161.041 70.7249 138.877 92.5938 138.694 119.753C138.512 146.912 160.381 169.077 187.54 169.259Z" fill="#BACDF0"/>
<path d="M185.515 170.309C212.683 170.492 234.854 148.616 235.037 121.449C235.219 94.2812 213.343 72.1096 186.176 71.9271C159.008 71.7446 136.836 93.6203 136.654 120.788C136.471 147.955 158.347 170.127 185.515 170.309Z" fill="#B9CCEF"/>
<path d="M183.514 171.363C210.69 171.545 232.868 149.663 233.051 122.487C233.233 95.311 211.351 73.1326 184.175 72.9501C156.999 72.7675 134.82 94.65 134.637 121.826C134.455 149.002 156.338 171.18 183.514 171.363Z" fill="#B8CCEF"/>
<path d="M181.543 172.413C208.726 172.596 230.91 150.708 231.092 123.526C231.275 96.3429 209.387 74.1591 182.204 73.9765C155.021 73.7939 132.837 95.6817 132.655 122.864C132.472 150.047 154.36 172.231 181.543 172.413Z" fill="#B8CCEF"/>
<path d="M179.599 173.467C206.791 173.65 228.981 151.755 229.164 124.564C229.347 97.3732 207.452 75.1825 180.261 74.9998C153.07 74.8172 130.879 96.7118 130.696 123.903C130.514 151.094 152.408 173.284 179.599 173.467Z" fill="#B7CBEF"/>
<path d="M177.686 174.524C204.886 174.707 227.083 152.805 227.266 125.606C227.449 98.4065 205.547 76.209 178.348 76.0263C151.148 75.8436 128.951 97.7449 128.768 124.944C128.585 152.144 150.487 174.341 177.686 174.524Z" fill="#B7CBEF"/>
<path d="M175.797 175.581C203.005 175.764 225.21 153.855 225.392 126.648C225.575 99.4401 203.667 77.2357 176.459 77.053C149.251 76.8702 127.047 98.7783 126.864 125.986C126.681 153.194 148.589 175.398 175.797 175.581Z" fill="#B6CAEF"/>
<path d="M173.935 176.638C201.15 176.821 223.36 154.907 223.543 127.693C223.726 100.479 201.812 78.2689 174.597 78.0861C147.383 77.9033 125.173 99.8167 124.99 127.031C124.807 154.245 146.721 176.455 173.935 176.638Z" fill="#B6CAEF"/>
<path d="M172.101 177.695C199.324 177.878 221.541 155.958 221.724 128.735C221.906 101.513 199.986 79.2959 172.763 79.1131C145.54 78.9302 123.323 100.85 123.14 128.073C122.958 155.296 144.878 177.513 172.101 177.695Z" fill="#B5C9EE"/>
<path d="M170.294 178.756C197.525 178.939 219.749 157.012 219.931 129.781C220.114 102.55 198.187 80.3265 170.956 80.1436C143.725 79.9607 121.501 101.888 121.318 129.119C121.135 156.35 143.062 178.573 170.294 178.756Z" fill="#B5C9EE"/>
<path d="M168.514 179.817C195.754 180 217.984 158.066 218.167 130.827C218.35 103.587 196.416 81.3572 169.176 81.1742C141.937 80.9912 119.706 102.925 119.523 130.164C119.34 157.404 141.274 179.634 168.514 179.817Z" fill="#B4C9EE"/>
<path d="M166.758 180.878C194.004 181.061 216.24 159.122 216.423 131.876C216.606 104.63 194.667 82.394 167.421 82.211C140.174 82.0279 117.938 103.967 117.755 131.213C117.572 158.459 139.511 180.695 166.758 180.878Z" fill="#B4C8EE"/>
<path d="M165.03 181.939C192.284 182.122 214.527 160.176 214.71 132.922C214.893 105.667 192.947 83.4247 165.693 83.2416C138.438 83.0586 116.195 105.004 116.012 132.259C115.829 159.513 137.775 181.756 165.03 181.939Z" fill="#B3C8EE"/>
<path d="M163.328 183.004C190.591 183.187 212.841 161.234 213.024 133.971C213.207 106.708 191.255 84.4589 163.991 84.2758C136.728 84.0927 114.479 106.045 114.296 133.308C114.112 160.571 136.065 182.821 163.328 183.004Z" fill="#B3C7EE"/>
<path d="M161.651 184.065C188.921 184.248 211.176 162.29 211.359 135.021C211.543 107.751 189.585 85.4962 162.315 85.313C135.045 85.1299 112.79 107.088 112.607 134.357C112.424 161.627 134.382 183.882 161.651 184.065Z" fill="#B2C7EE"/>
<path d="M159.999 185.13C187.277 185.313 209.539 163.348 209.722 136.07C209.905 108.792 187.941 86.5307 160.662 86.3475C133.384 86.1643 111.122 108.129 110.939 135.407C110.756 162.685 132.721 184.947 159.999 185.13Z" fill="#B2C7ED"/>
<path d="M158.373 186.198C185.66 186.381 207.928 164.41 208.112 137.123C208.295 109.837 186.323 87.5684 159.037 87.3851C131.75 87.2018 109.482 109.173 109.298 136.46C109.115 163.746 131.087 186.014 158.373 186.198Z" fill="#B1C6ED"/>
<path d="M156.772 187.266C184.067 187.449 206.343 165.471 206.526 138.176C206.709 110.882 184.731 88.6063 157.436 88.4229C130.141 88.2396 107.866 110.218 107.682 137.512C107.499 164.807 129.477 187.083 156.772 187.266Z" fill="#B1C6ED"/>
<path d="M155.195 188.331C182.497 188.514 204.778 166.531 204.961 139.229C205.145 111.928 183.161 89.6472 155.859 89.4638C128.558 89.2804 106.277 111.264 106.093 138.565C105.91 165.867 127.894 188.148 155.195 188.331Z" fill="#B0C5ED"/>
<path d="M153.642 189.399C180.952 189.583 203.24 167.593 203.424 140.283C203.607 112.973 181.617 90.6853 154.307 90.5019C126.997 90.3184 104.709 112.309 104.526 139.619C104.342 166.928 126.332 189.216 153.642 189.399Z" fill="#B0C5ED"/>
<path d="M152.117 190.468C179.436 190.651 201.73 168.654 201.914 141.336C202.097 114.018 180.1 91.7236 152.782 91.5401C125.463 91.3566 103.169 113.354 102.985 140.672C102.802 167.99 124.799 190.284 152.117 190.468Z" fill="#AFC4ED"/>
<path d="M150.613 191.54C177.94 191.723 200.241 169.72 200.425 142.393C200.608 115.067 178.604 92.7654 151.278 92.5818C123.951 92.3983 101.649 114.402 101.466 141.729C101.282 169.055 123.286 191.356 150.613 191.54Z" fill="#AEC4ED"/>
<path d="M149.136 192.606C176.469 192.789 198.776 170.78 198.96 143.447C199.143 116.114 177.134 93.807 149.801 93.6234C122.467 93.4398 100.16 115.449 99.9765 142.782C99.7929 170.115 121.802 192.422 149.136 192.606Z" fill="#AEC4EC"/>
<path d="M147.68 193.678C175.022 193.861 197.336 171.846 197.519 144.504C197.703 117.162 175.687 94.8488 148.345 94.6651C121.003 94.4815 98.6896 116.497 98.506 143.839C98.3223 171.181 120.338 193.494 147.68 193.678Z" fill="#ADC3EC"/>
<path d="M146.252 194.75C173.602 194.934 195.922 172.911 196.106 145.561C196.29 118.211 174.267 95.8907 146.917 95.707C119.567 95.5233 97.2461 117.546 97.0624 144.896C96.8787 172.246 118.901 194.566 146.252 194.75Z" fill="#ADC3EC"/>
<path d="M144.841 195.822C172.198 196.006 194.524 173.978 194.708 146.622C194.892 119.265 172.864 96.939 145.507 96.7552C118.15 96.5715 95.8238 118.599 95.6401 145.956C95.4563 173.313 117.484 195.639 144.841 195.822Z" fill="#ACC2EC"/>
<path d="M143.458 196.895C170.824 197.079 193.156 175.044 193.34 147.679C193.524 120.314 171.489 97.9812 144.124 97.7974C116.759 97.6136 94.4258 119.648 94.242 147.013C94.0582 174.378 116.093 196.711 143.458 196.895Z" fill="#ACC2EC"/>
<path d="M142.096 197.968C169.47 198.152 191.81 176.11 191.993 148.737C192.177 121.363 170.136 99.0239 142.762 98.84C115.389 98.6561 93.0488 120.698 92.865 148.071C92.6811 175.444 114.723 197.784 142.096 197.968Z" fill="#ABC1EC"/>
<path d="M140.759 199.044C168.141 199.228 190.487 177.179 190.671 149.798C190.855 122.416 168.807 100.069 141.425 99.8855C114.043 99.7016 91.6961 121.75 91.5122 149.132C91.3283 176.513 113.377 198.86 140.759 199.044Z" fill="#ABC1EC"/>
<path d="M139.445 200.117C166.834 200.301 189.186 178.247 189.37 150.859C189.554 123.47 167.5 101.118 140.112 100.934C112.723 100.75 90.3709 122.804 90.1869 150.193C90.0029 177.581 112.057 199.933 139.445 200.117Z" fill="#AAC1EB"/>
<path d="M138.15 201.19C165.547 201.374 187.906 179.314 188.09 151.917C188.274 124.52 166.214 102.161 138.817 101.977C111.42 101.793 89.0608 123.854 88.8768 151.25C88.6927 178.647 110.753 201.006 138.15 201.19Z" fill="#AAC0EB"/>
<path d="M136.882 202.266C164.288 202.45 186.653 180.383 186.837 152.978C187.022 125.573 164.954 103.207 137.549 103.023C110.144 102.839 87.7779 124.906 87.5938 152.312C87.4097 179.717 109.477 202.082 136.882 202.266Z" fill="#A9C0EB"/>
<path d="M135.633 203.343C163.046 203.527 185.419 181.453 185.603 154.04C185.787 126.626 163.713 104.254 136.299 104.069C108.886 103.885 86.5131 125.959 86.3289 153.373C86.1448 180.786 108.219 203.159 135.633 203.343Z" fill="#A9BFEB"/>
<path d="M134.407 204.419C161.828 204.604 184.206 182.524 184.39 155.104C184.574 127.684 162.495 105.306 135.074 105.122C107.654 104.938 85.2757 127.017 85.0916 154.437C84.9074 181.857 106.987 204.235 134.407 204.419Z" fill="#A8BFEB"/>
<path d="M133.203 205.496C160.632 205.681 183.016 183.595 183.201 156.166C183.385 128.737 161.299 106.353 133.87 106.169C106.441 105.984 84.0565 128.07 83.8722 155.499C83.688 182.927 105.774 205.312 133.203 205.496Z" fill="#A8BEEB"/>
<path d="M132.02 206.573C159.457 206.757 181.848 184.665 182.033 157.228C182.217 129.791 160.124 107.399 132.687 107.215C105.25 107.031 82.8582 129.123 82.6739 156.56C82.4896 183.997 104.582 206.389 132.02 206.573Z" fill="#A7BEEA"/>
<path d="M130.858 207.647C158.302 207.832 180.699 185.734 180.883 158.29C181.068 130.846 158.969 108.449 131.526 108.265C104.082 108.081 81.6845 130.179 81.5002 157.622C81.3159 185.066 103.414 207.463 130.858 207.647Z" fill="#A7BEEA"/>
<path d="M129.717 208.728C157.17 208.912 179.573 186.807 179.758 159.355C179.942 131.903 157.837 109.499 130.385 109.315C102.933 109.131 80.5289 131.235 80.3445 158.687C80.1601 186.139 102.265 208.543 129.717 208.728Z" fill="#A6BDEA"/>
<path d="M128.595 209.805C156.056 209.989 178.466 187.878 178.651 160.417C178.835 132.957 156.724 110.546 129.263 110.362C101.802 110.177 79.3916 132.289 79.2072 159.749C79.0227 187.21 101.134 209.62 128.595 209.805Z" fill="#A5BDEA"/>
<path d="M127.497 210.885C154.966 211.07 177.383 188.952 177.568 161.483C177.752 134.014 155.634 111.597 128.165 111.412C100.696 111.228 78.2782 133.346 78.0937 160.815C77.9091 188.284 100.028 210.701 127.497 210.885Z" fill="#A5BCEA"/>
<path d="M126.42 211.96C153.895 212.145 176.318 190.021 176.503 162.546C176.687 135.07 154.564 112.647 127.088 112.463C99.6122 112.278 77.1891 134.402 77.0046 161.877C76.82 189.353 98.9439 211.776 126.42 211.96Z" fill="#A4BCEA"/>
<path d="M125.361 213.041C152.845 213.226 175.275 191.095 175.459 163.611C175.644 136.128 153.513 113.698 126.029 113.513C98.5454 113.329 76.1155 135.459 75.9309 162.943C75.7463 190.427 97.8768 212.856 125.361 213.041Z" fill="#A4BBEA"/>
<path d="M124.323 214.122C151.816 214.307 174.252 192.169 174.437 164.677C174.622 137.185 152.484 114.748 124.992 114.564C97.4995 114.379 75.0628 136.516 74.8782 164.008C74.6935 191.501 96.8308 213.937 124.323 214.122Z" fill="#A3BBE9"/>
<path d="M123.304 215.197C150.803 215.382 173.245 193.239 173.43 165.74C173.614 138.241 151.472 115.799 123.973 115.615C96.4736 115.43 74.0314 137.572 73.8467 165.071C73.662 192.57 95.8047 215.012 123.304 215.197Z" fill="#A3BBE9"/>
<path d="M122.305 216.278C149.813 216.463 172.262 194.314 172.447 166.807C172.631 139.299 150.482 116.85 122.975 116.666C95.4671 116.481 73.0181 138.63 72.8333 166.137C72.6485 193.645 94.798 216.094 122.305 216.278Z" fill="#A2BAE9"/>
<path d="M121.326 217.36C148.841 217.545 171.297 195.389 171.482 167.873C171.667 140.357 149.511 117.902 121.995 117.717C94.479 117.532 72.0231 139.688 71.8383 167.204C71.6535 194.719 93.8097 217.175 121.326 217.36Z" fill="#A2BAE9"/>
<path d="M120.367 218.438C147.891 218.623 170.353 196.46 170.538 168.936C170.723 141.412 148.56 118.95 121.036 118.765C93.5119 118.58 71.0492 140.743 70.8643 168.267C70.6795 195.791 92.8424 218.253 120.367 218.438Z" fill="#A1B9E9"/>
<path d="M119.426 219.517C146.957 219.702 169.425 197.533 169.61 170.003C169.795 142.472 147.627 120.004 120.096 119.819C92.5649 119.634 70.0968 141.802 69.9119 169.333C69.7269 196.864 91.8952 219.332 119.426 219.517Z" fill="#A1B9E9"/>
<path d="M118.504 220.595C146.043 220.78 168.518 198.605 168.703 171.066C168.888 143.527 146.713 121.053 119.173 120.868C91.6342 120.683 69.1592 142.857 68.9743 170.397C68.7893 197.936 90.9643 220.41 118.504 220.595Z" fill="#A0B9E9"/>
<path d="M117.602 221.677C145.15 221.862 167.632 199.68 167.817 172.133C168.002 144.586 145.82 122.104 118.272 121.919C90.7248 121.734 68.2431 143.915 68.058 171.463C67.873 199.01 90.0548 221.492 117.602 221.677Z" fill="#A0B8E8"/>
<path d="M116.716 222.759C144.272 222.944 166.761 200.756 166.946 173.2C167.131 145.644 144.943 123.156 117.387 122.971C89.8305 122.786 67.3419 144.974 67.1568 172.53C66.9717 200.086 89.1602 222.574 116.716 222.759Z" fill="#9FB8E8"/>
<path d="M115.851 223.835C143.414 224.02 165.908 201.827 166.093 174.264C166.278 146.702 144.085 124.208 116.522 124.023C88.9591 123.837 66.465 146.031 66.2799 173.594C66.0948 201.156 88.2886 223.65 115.851 223.835Z" fill="#9FB7E8"/>
<path d="M115.005 224.918C142.576 225.103 165.077 202.902 165.262 175.331C165.447 147.761 143.247 125.26 115.676 125.075C88.1044 124.889 65.6035 147.09 65.4183 174.661C65.2331 202.232 87.4338 224.732 115.005 224.918Z" fill="#9EB7E8"/>
<path d="M114.173 225.997C141.753 226.182 164.26 203.975 164.446 176.395C164.631 148.816 142.423 126.309 114.844 126.123C87.2645 125.938 64.7568 148.145 64.5716 175.725C64.3863 203.304 86.5937 225.811 114.173 225.997Z" fill="#9EB6E8"/>
<path d="M113.363 227.073C140.949 227.259 163.462 205.046 163.647 177.46C163.833 149.874 141.62 127.361 114.034 127.176C86.4476 126.99 63.9344 149.203 63.7491 176.789C63.5638 204.375 85.7766 226.888 113.363 227.073Z" fill="#9DB6E8"/>
<path d="M112.568 228.156C140.162 228.341 162.682 206.122 162.868 178.528C163.053 150.933 140.833 128.413 113.239 128.228C85.6444 128.043 63.1244 150.262 62.939 177.856C62.7537 205.451 84.9732 227.971 112.568 228.156Z" fill="#9DB6E8"/>
<path d="M111.791 229.235C139.394 229.421 161.92 207.195 162.106 179.592C162.291 151.989 140.065 129.463 112.462 129.277C84.8592 129.092 62.3324 151.318 62.147 178.921C61.9615 206.523 84.1878 229.05 111.791 229.235Z" fill="#9CB5E7"/>
<path d="M111.029 230.315C138.64 230.501 161.174 208.268 161.359 180.657C161.545 153.046 139.312 130.512 111.701 130.327C84.0893 130.141 61.5556 152.374 61.3701 179.985C61.1847 207.596 83.4176 230.13 111.029 230.315Z" fill="#9BB5E7"/>
<path d="M110.285 231.392C137.903 231.578 160.442 209.34 160.628 181.722C160.813 154.104 138.575 131.565 110.957 131.38C83.3388 131.194 60.7997 153.432 60.6142 181.05C60.4287 208.668 82.667 231.207 110.285 231.392Z" fill="#9BB4E7"/>
<path d="M109.56 232.472C137.186 232.658 159.732 210.413 159.917 182.787C160.103 155.161 137.858 132.615 110.232 132.429C82.6053 132.244 60.0593 154.489 59.8737 182.115C59.6882 209.741 81.9333 232.287 109.56 232.472Z" fill="#9AB4E7"/>
<path d="M108.85 233.552C136.484 233.738 159.037 211.486 159.223 183.852C159.408 156.217 137.156 133.665 109.522 133.479C81.8871 133.294 59.3343 155.545 59.1486 183.18C58.963 210.814 81.2149 233.367 108.85 233.552Z" fill="#9AB3E7"/>
<path d="M108.157 234.63C135.8 234.815 158.36 212.557 158.546 184.914C158.731 157.271 136.473 134.712 108.83 134.526C81.1866 134.34 58.6269 156.599 58.4413 184.242C58.2556 211.884 80.5142 234.444 108.157 234.63Z" fill="#99B3E7"/>
<path d="M107.48 235.707C135.13 235.893 157.695 213.629 157.881 185.979C158.066 158.33 135.803 135.765 108.153 135.579C80.503 135.393 57.9379 157.657 57.7522 185.307C57.5665 212.956 79.8305 235.521 107.48 235.707Z" fill="#99B3E7"/>
<path d="M106.806 236.806C134.464 236.991 157.036 214.721 157.222 187.063C157.408 159.405 135.137 136.833 107.479 136.647C79.8209 136.462 57.2489 158.732 57.0632 186.39C56.8774 214.048 79.1481 236.62 106.806 236.806Z" fill="#98B2E6"/>
<path d="M106.015 238.231C133.681 238.416 156.26 216.139 156.446 188.473C156.632 160.807 134.354 138.228 106.688 138.042C79.0212 137.856 56.4425 160.134 56.2567 187.8C56.0708 215.466 78.3483 238.045 106.015 238.231Z" fill="#98B2E6"/>
<path d="M105.39 239.602C133.063 239.788 155.648 217.505 155.834 189.832C156.019 162.159 133.737 139.575 106.063 139.39C78.3902 139.204 55.806 161.486 55.6201 189.159C55.4342 216.832 77.7171 239.416 105.39 239.602Z" fill="#97B1E6"/>
<path d="M104.93 240.933C132.611 241.118 155.202 218.829 155.388 191.148C155.574 163.466 133.285 140.876 105.603 140.69C77.9215 140.504 55.3305 162.793 55.1445 190.474C54.9586 218.156 77.2482 240.747 104.93 240.933Z" fill="#97B1E6"/>
<path d="M104.627 242.215C132.317 242.401 154.915 220.105 155.101 192.415C155.287 164.726 132.991 142.128 105.301 141.942C77.6109 141.756 55.013 164.052 54.827 191.742C54.6411 219.432 76.9374 242.029 104.627 242.215Z" fill="#96B0E6"/>
<path d="M104.48 243.457C132.178 243.643 154.783 221.34 154.969 193.642C155.155 165.944 132.852 143.339 105.153 143.153C77.4551 142.967 54.8504 165.27 54.6643 192.968C54.4783 220.666 76.7814 243.271 104.48 243.457Z" fill="#96B0E6"/>
<path d="M104.49 244.648C132.195 244.834 154.805 222.526 154.991 194.821C155.177 167.116 132.869 144.506 105.164 144.32C77.4587 144.134 54.8485 166.442 54.6624 194.147C54.4763 221.852 76.7848 244.462 104.49 244.648Z" fill="#95B0E5"/>
<path d="M104.646 245.797C132.359 245.984 154.976 223.669 155.162 195.955C155.348 168.242 133.033 145.626 105.32 145.439C77.6065 145.253 54.9895 167.568 54.8033 195.281C54.6172 222.995 76.9324 245.611 104.646 245.797Z" fill="#95AFE5"/>
<path d="M104.95 246.906C132.672 247.092 155.296 224.77 155.482 197.048C155.668 169.327 133.346 146.703 105.624 146.517C77.9028 146.331 55.279 168.653 55.0928 196.374C54.9066 224.096 77.2285 246.719 104.95 246.906Z" fill="#94AFE5"/>
<path d="M105.401 247.972C133.131 248.159 155.761 225.83 155.948 198.1C156.134 170.37 133.805 147.74 106.075 147.554C78.3451 147.367 55.7145 169.696 55.5282 197.426C55.342 225.156 77.6706 247.786 105.401 247.972Z" fill="#94AEE5"/>
<path d="M105.991 248.997C133.728 249.184 156.364 226.85 156.55 199.113C156.736 171.377 134.402 148.741 106.666 148.555C78.9289 148.368 56.2928 170.702 56.1065 198.439C55.9202 226.175 78.2543 248.811 105.991 248.997Z" fill="#93AEE5"/>
<path d="M106.718 249.981C134.463 250.168 157.106 227.827 157.292 200.082C157.479 172.337 135.138 149.694 107.393 149.508C79.6475 149.322 57.0046 171.662 56.8182 199.407C56.6318 227.152 78.9726 249.795 106.718 249.981Z" fill="#92ADE5"/>
<path d="M107.581 250.929C135.334 251.116 157.984 228.768 158.171 201.015C158.357 173.262 136.01 150.612 108.256 150.426C80.5026 150.239 57.8528 172.587 57.6664 200.34C57.4799 228.093 79.8275 250.743 107.581 250.929Z" fill="#92ADE5"/>
<path d="M108.575 251.833C136.335 252.02 158.991 229.667 159.177 201.907C159.364 174.147 137.011 151.492 109.25 151.306C81.4903 151.119 58.835 173.472 58.6486 201.232C58.4621 228.992 80.815 251.647 108.575 251.833Z" fill="#91ADE4"/>
<path d="M109.697 252.705C137.465 252.891 160.127 230.532 160.314 202.763C160.5 174.995 138.141 152.333 110.372 152.146C82.6035 151.96 59.9414 174.319 59.7549 202.088C59.5684 229.856 81.9281 252.518 109.697 252.705Z" fill="#91ACE4"/>
<path d="M110.943 253.537C138.72 253.724 161.388 231.357 161.575 203.581C161.762 175.804 139.395 153.135 111.618 152.949C83.8414 152.762 61.1725 175.128 60.9859 202.905C60.7993 230.682 83.1657 253.35 110.943 253.537Z" fill="#90ACE4"/>
<path d="M112.313 254.337C140.098 254.524 162.774 232.151 162.961 204.366C163.147 176.581 140.774 153.905 112.989 153.719C85.2035 153.532 62.5278 175.905 62.3411 203.69C62.1545 231.475 84.5276 254.151 112.313 254.337Z" fill="#90ABE4"/>
<path d="M113.802 255.096C141.594 255.282 164.275 232.904 164.462 205.112C164.649 177.32 142.27 154.639 114.478 154.453C86.6861 154.266 64.0049 176.644 63.8182 204.436C63.6316 232.228 86.0101 254.909 113.802 255.096Z" fill="#8FABE4"/>
<path d="M115.406 255.825C143.207 256.012 165.895 233.627 166.081 205.826C166.268 178.026 143.883 155.338 116.082 155.152C88.2821 154.965 65.5941 177.35 65.4074 205.15C65.2206 232.95 87.6059 255.638 115.406 255.825Z" fill="#8FABE4"/>
<path d="M117.123 256.521C144.932 256.708 167.626 234.316 167.813 206.507C168 178.699 145.608 156.004 117.799 155.817C89.9906 155.631 67.2957 178.023 67.1089 205.831C66.9221 233.64 89.3141 256.334 117.123 256.521Z" fill="#8EAAE4"/>
<path d="M118.952 257.182C146.769 257.369 169.471 234.97 169.657 207.153C169.844 179.336 147.446 156.635 119.628 156.448C91.8113 156.261 69.1096 178.66 68.9228 206.477C68.7359 234.294 91.1347 256.995 118.952 257.182Z" fill="#8EAAE3"/>
<path d="M120.884 257.81C148.708 257.997 171.415 235.593 171.602 207.769C171.789 179.946 149.385 157.239 121.561 157.052C93.737 156.865 71.0299 179.269 70.843 207.093C70.6561 234.916 93.0602 257.623 120.884 257.81Z" fill="#8DA9E3"/>
<path d="M122.923 258.412C150.755 258.599 173.469 236.188 173.656 208.356C173.843 180.524 151.432 157.81 123.6 157.623C95.7675 157.436 73.0535 179.847 72.8666 207.679C72.6796 235.511 95.0905 258.225 122.923 258.412Z" fill="#8DA9E3"/>
<path d="M125.058 258.981C152.899 259.168 175.62 236.75 175.807 208.91C175.994 181.07 153.576 158.349 125.735 158.162C97.8949 157.975 75.1741 180.392 74.9871 208.233C74.8001 236.073 97.2177 258.794 125.058 258.981Z" fill="#8CA8E3"/>
<path d="M127.294 259.52C155.142 259.707 177.868 237.284 178.055 209.437C178.242 181.59 155.819 158.864 127.972 158.677C100.124 158.49 77.3982 180.913 77.2111 208.76C77.0241 236.607 99.4471 259.333 127.294 259.52Z" fill="#8CA8E3"/>
<path d="M129.621 260.033C157.477 260.22 180.21 237.79 180.397 209.935C180.584 182.079 158.154 159.346 130.299 159.159C102.443 158.972 79.7101 181.402 79.523 209.257C79.3359 237.112 101.766 259.845 129.621 260.033Z" fill="#8BA8E3"/>
<path d="M132.042 260.516C159.906 260.703 182.646 238.266 182.833 210.403C183.021 182.539 160.584 159.799 132.72 159.612C104.856 159.425 82.1163 181.861 81.9292 209.725C81.742 237.589 104.178 260.328 132.042 260.516Z" fill="#8BA7E3"/>
<path d="M134.548 260.975C162.421 261.162 185.167 238.719 185.355 210.847C185.542 182.975 163.099 160.228 135.226 160.041C107.354 159.854 84.6073 182.297 84.42 210.169C84.2328 238.041 106.676 260.788 134.548 260.975Z" fill="#8AA7E2"/>
<path d="M137.14 261.404C165.019 261.592 187.771 239.143 187.958 211.264C188.146 183.385 165.697 160.633 137.818 160.446C109.939 160.259 87.1867 182.707 86.9994 210.586C86.8122 238.465 109.261 261.217 137.14 261.404Z" fill="#8AA6E2"/>
<path d="M139.813 261.81C167.7 261.998 190.459 239.543 190.646 211.655C190.834 183.768 168.378 161.009 140.491 160.822C112.604 160.635 89.8446 183.09 89.6573 210.977C89.47 238.864 111.925 261.623 139.813 261.81Z" fill="#89A6E2"/>
<path d="M142.565 262.195C170.461 262.383 193.226 239.921 193.414 212.025C193.601 184.13 171.139 161.364 143.243 161.177C115.348 160.989 92.5817 183.451 92.3944 211.347C92.207 239.242 114.669 262.008 142.565 262.195Z" fill="#88A5E2"/>
<path d="M145.393 262.554C173.297 262.741 196.07 240.273 196.257 212.369C196.445 184.465 173.976 161.692 146.072 161.505C118.168 161.317 95.3948 183.786 95.2074 211.69C95.0199 239.594 117.489 262.367 145.393 262.554Z" fill="#88A5E2"/>
<path d="M148.291 262.889C176.202 263.076 198.98 240.602 199.167 212.691C199.355 184.781 176.881 162.003 148.97 161.815C121.059 161.628 98.2809 184.102 98.0934 212.012C97.9059 239.923 120.38 262.701 148.291 262.889Z" fill="#87A5E2"/>
<path d="M151.262 263.205C179.181 263.393 201.966 240.912 202.153 212.993C202.341 185.074 179.86 162.289 151.941 162.102C124.022 161.914 101.237 184.395 101.049 212.314C100.861 240.233 123.342 263.018 151.262 263.205Z" fill="#87A4E2"/>
<path d="M154.296 263.498C182.224 263.686 205.016 241.199 205.203 213.271C205.391 185.344 182.903 162.552 154.976 162.365C127.048 162.177 104.256 184.664 104.069 212.592C103.881 240.519 126.369 263.311 154.296 263.498Z" fill="#86A4E1"/>
<path d="M157.392 263.771C185.326 263.958 208.123 241.466 208.311 213.532C208.498 185.597 186.005 162.8 158.071 162.613C130.137 162.425 107.34 184.918 107.152 212.852C106.964 240.786 129.457 263.583 157.392 263.771Z" fill="#86A3E1"/>
<path d="M160.551 264.025C188.493 264.213 211.297 241.713 211.485 213.771C211.673 185.829 189.173 163.025 161.23 162.837C133.288 162.649 110.484 185.149 110.296 213.091C110.108 241.034 132.608 263.838 160.551 264.025Z" fill="#85A3E1"/>
<path d="M163.765 264.262C191.716 264.45 214.526 241.944 214.714 213.993C214.902 186.042 192.395 163.231 164.444 163.043C136.493 162.856 113.683 185.362 113.495 213.313C113.307 241.264 135.814 264.074 163.765 264.262Z" fill="#85A2E1"/>
<path d="M167.03 264.484C194.989 264.672 217.807 242.159 217.995 214.2C218.182 186.24 195.669 163.423 167.71 163.235C139.751 163.047 116.933 185.56 116.745 213.519C116.557 241.479 139.07 264.296 167.03 264.484Z" fill="#84A2E1"/>
<path d="M170.347 264.682C198.313 264.87 221.136 242.351 221.324 214.386C221.512 186.42 198.993 163.597 171.027 163.409C143.061 163.221 120.238 185.739 120.05 213.705C119.862 241.671 142.381 264.494 170.347 264.682Z" fill="#84A2E1"/>
<path d="M173.712 264.871C201.687 265.059 224.517 242.534 224.705 214.56C224.893 186.586 202.367 163.756 174.393 163.568C146.418 163.38 123.588 185.905 123.4 213.879C123.212 241.854 145.738 264.683 173.712 264.871Z" fill="#83A1E1"/>
<path d="M177.121 265.043C205.103 265.231 227.94 242.699 228.128 214.716C228.316 186.733 205.784 163.897 177.801 163.709C149.818 163.521 126.982 186.053 126.794 214.035C126.606 242.018 149.138 264.855 177.121 265.043Z" fill="#83A1E0"/>
<path d="M180.571 265.2C208.562 265.388 231.406 242.849 231.594 214.858C231.782 186.867 209.243 164.023 181.252 163.835C153.261 163.647 130.417 186.186 130.229 214.177C130.041 242.168 152.58 265.012 180.571 265.2Z" fill="#82A0E0"/>
<path d="M184.058 265.341C212.056 265.529 234.906 242.985 235.094 214.987C235.282 186.99 212.737 164.141 184.739 163.952C156.742 163.764 133.892 186.309 133.704 214.306C133.516 242.304 156.061 265.153 184.058 265.341Z" fill="#82A0E0"/>
<path d="M187.582 265.474C215.588 265.662 238.444 243.111 238.632 215.105C238.82 187.099 216.269 164.243 188.263 164.055C160.257 163.867 137.401 186.418 137.213 214.424C137.025 242.43 159.576 265.286 187.582 265.474Z" fill="#819FE0"/>
<path d="M191.136 265.595C219.151 265.783 242.013 243.225 242.202 215.211C242.39 187.197 219.832 164.334 191.817 164.146C163.803 163.957 140.94 186.515 140.752 214.529C140.564 242.544 163.121 265.407 191.136 265.595Z" fill="#819FE0"/>
<path d="M194.717 265.7C222.739 265.889 245.607 243.326 245.795 215.305C245.983 187.284 223.42 164.415 195.399 164.227C167.378 164.039 144.509 186.602 144.321 214.623C144.133 242.644 166.696 265.512 194.717 265.7Z" fill="#809FE0"/>
<path d="M198.326 265.801C226.355 265.989 249.231 243.419 249.419 215.39C249.607 187.36 227.037 164.485 199.008 164.297C170.978 164.109 148.103 186.678 147.914 214.708C147.726 242.737 170.296 265.612 198.326 265.801Z" fill="#7F9EDF"/>
<path d="M201.956 265.892C229.994 266.08 252.876 243.503 253.064 215.466C253.252 187.428 230.676 164.546 202.638 164.358C174.6 164.169 151.718 186.746 151.529 214.784C151.341 242.821 173.918 265.703 201.956 265.892Z" fill="#7F9EDF"/>
<path d="M205.604 265.974C233.65 266.162 256.539 243.579 256.727 215.533C256.916 187.486 234.332 164.598 206.286 164.409C178.24 164.221 155.351 186.804 155.162 214.85C154.974 242.897 177.557 265.785 205.604 265.974Z" fill="#7E9DDF"/>
<path d="M209.27 266.044C237.323 266.232 260.218 243.643 260.406 215.591C260.594 187.538 238.006 164.644 209.953 164.455C181.9 164.267 159.005 186.855 158.817 214.908C158.628 242.961 181.217 265.855 209.27 266.044Z" fill="#7E9DDF"/>
<path d="M212.946 266.114C241.007 266.302 263.908 243.707 264.097 215.646C264.285 187.585 241.69 164.684 213.628 164.495C185.567 164.307 162.666 186.902 162.477 214.963C162.289 243.025 184.884 265.925 212.946 266.114Z" fill="#7D9DDF"/>
<path d="M216.633 266.175C244.703 266.363 267.611 243.761 267.8 215.692C267.988 187.622 245.386 164.714 217.316 164.526C189.246 164.337 166.338 186.939 166.15 215.009C165.961 243.079 188.563 265.986 216.633 266.175Z" fill="#7D9CDF"/>
<path d="M220.33 266.23C248.407 266.419 271.32 243.811 271.509 215.735C271.697 187.659 249.09 164.746 221.013 164.557C192.937 164.368 170.023 186.976 169.835 215.052C169.646 243.128 192.254 266.042 220.33 266.23Z" fill="#7C9CDF"/>
<path d="M224.027 266.282C252.112 266.471 275.032 243.857 275.221 215.772C275.409 187.687 252.795 164.767 224.71 164.579C196.625 164.39 173.705 187.004 173.516 215.089C173.328 243.173 195.942 266.093 224.027 266.282Z" fill="#7C9BDE"/>
<path d="M227.724 266.331C255.817 266.52 278.744 243.899 278.933 215.806C279.122 187.713 256.501 164.786 228.407 164.597C200.314 164.409 177.387 187.03 177.198 215.123C177.01 243.216 199.631 266.143 227.724 266.331Z" fill="#7B9BDE"/>
<path d="M231.421 266.38C259.522 266.569 282.456 243.941 282.645 215.84C282.834 187.739 260.206 164.805 232.104 164.616C204.003 164.427 181.069 187.055 180.88 215.156C180.691 243.258 203.319 266.192 231.421 266.38Z" fill="#7B9ADE"/>
<path d="M235.111 266.423C263.22 266.612 286.159 243.979 286.348 215.871C286.537 187.763 263.904 164.824 235.795 164.635C207.687 164.446 184.748 187.079 184.559 215.187C184.37 243.295 207.003 266.234 235.111 266.423Z" fill="#7A9ADE"/>
<path d="M238.79 266.466C266.907 266.655 289.853 244.015 290.042 215.899C290.231 187.782 267.591 164.836 239.474 164.648C211.358 164.459 188.411 187.098 188.223 215.215C188.034 243.331 210.674 266.277 238.79 266.466Z" fill="#7A9ADE"/>
<path d="M242.46 266.512C270.585 266.701 293.538 244.054 293.727 215.93C293.916 187.805 271.269 164.852 243.144 164.663C215.019 164.474 192.066 187.121 191.877 215.245C191.688 243.37 214.335 266.323 242.46 266.512Z" fill="#7999DE"/>
<path d="M246.114 266.558C274.248 266.747 297.208 244.093 297.397 215.96C297.586 187.827 274.932 164.867 246.799 164.678C218.665 164.489 195.705 187.143 195.516 215.276C195.328 243.409 217.981 266.369 246.114 266.558Z" fill="#7999DE"/>
<path d="M249.748 266.603C277.888 266.792 300.853 244.134 301.042 215.994C301.231 187.854 278.572 164.889 250.432 164.7C222.292 164.511 199.327 187.169 199.138 215.309C198.949 243.449 221.608 266.414 249.748 266.603Z" fill="#7898DD"/>
<path d="M253.363 266.652C281.511 266.841 304.483 244.176 304.672 216.027C304.861 187.879 282.196 164.907 254.047 164.718C225.899 164.529 202.927 187.194 202.738 215.343C202.549 243.491 225.214 266.463 253.363 266.652Z" fill="#7898DD"/>
<path d="M256.95 266.706C285.107 266.896 308.086 244.223 308.275 216.067C308.464 187.91 285.792 164.931 257.635 164.742C229.478 164.553 206.499 187.225 206.31 215.382C206.121 243.539 228.793 266.517 256.95 266.706Z" fill="#7797DD"/>
<path d="M260.511 266.761C288.674 266.95 311.659 244.272 311.848 216.109C312.037 187.946 289.359 164.961 261.196 164.772C233.032 164.583 210.048 187.26 209.859 215.424C209.669 243.587 232.347 266.571 260.511 266.761Z" fill="#7797DD"/>
<path d="M264.044 266.824C292.216 267.013 315.207 244.329 315.396 216.157C315.586 187.985 292.901 164.994 264.729 164.805C236.557 164.616 213.566 187.3 213.377 215.472C213.188 243.643 235.872 266.634 264.044 266.824Z" fill="#7697DD"/>
<path d="M267.538 266.893C295.718 267.082 318.716 244.391 318.905 216.211C319.094 188.031 296.403 165.033 268.223 164.844C240.043 164.654 217.045 187.345 216.855 215.525C216.666 243.705 239.357 266.703 267.538 266.893Z" fill="#7596DD"/>
<path d="M270.998 266.967C299.186 267.157 322.191 244.459 322.381 216.271C322.57 188.082 299.872 165.077 271.683 164.888C243.495 164.699 220.49 187.397 220.301 215.585C220.111 243.773 242.809 266.778 270.998 266.967Z" fill="#7596DD"/>
<path d="M274.419 267.048C302.614 267.237 325.624 244.534 325.814 216.339C326.003 188.144 303.3 165.134 275.105 164.944C246.909 164.755 223.899 187.458 223.709 215.653C223.52 243.848 246.223 266.858 274.419 267.048Z" fill="#7495DC"/>
<path d="M277.794 267.137C305.998 267.327 329.015 244.617 329.204 216.413C329.394 188.21 306.684 165.193 278.48 165.003C250.276 164.814 227.259 187.524 227.07 215.727C226.88 243.931 249.59 266.948 277.794 267.137Z" fill="#7495DC"/>
<path d="M281.124 267.238C309.336 267.428 332.36 244.711 332.55 216.499C332.739 188.288 310.022 165.264 281.81 165.074C253.598 164.885 230.574 187.601 230.385 215.813C230.195 244.025 252.912 267.049 281.124 267.238Z" fill="#7394DC"/>
<path d="M284.402 267.348C312.622 267.538 335.653 244.815 335.843 216.594C336.032 188.374 313.309 165.343 285.088 165.154C256.868 164.964 233.837 187.688 233.648 215.908C233.458 244.128 256.182 267.159 284.402 267.348Z" fill="#7394DC"/>
<path d="M287.632 267.467C315.859 267.657 338.895 244.928 339.085 216.701C339.274 188.474 316.545 165.438 288.318 165.248C260.091 165.059 237.055 187.788 236.865 216.015C236.676 244.241 259.405 267.278 287.632 267.467Z" fill="#7294DC"/>
<path d="M290.801 267.6C319.036 267.79 342.08 245.055 342.269 216.819C342.459 188.584 319.723 165.541 291.488 165.351C263.252 165.162 240.209 187.897 240.019 216.132C239.83 244.368 262.565 267.411 290.801 267.6Z" fill="#7293DC"/>
<path d="M293.915 267.745C322.159 267.935 345.209 245.193 345.399 216.949C345.589 188.706 322.846 165.656 294.602 165.466C266.358 165.276 243.308 188.019 243.119 216.262C242.929 244.506 265.671 267.556 293.915 267.745Z" fill="#7193DC"/>
<path d="M296.966 267.902C325.216 268.092 348.272 245.344 348.461 217.094C348.651 188.844 325.903 165.788 297.653 165.599C269.402 165.409 246.347 188.157 246.157 216.407C245.967 244.657 268.715 267.713 296.966 267.902Z" fill="#7192DB"/>
<path d="M299.95 268.077C328.209 268.267 351.271 245.512 351.461 217.254C351.651 188.995 328.896 165.933 300.637 165.743C272.378 165.553 249.316 188.308 249.126 216.566C248.936 244.825 271.691 267.887 299.95 268.077Z" fill="#7092DB"/>
<path d="M302.867 268.263C331.134 268.453 354.203 245.692 354.393 217.425C354.583 189.158 331.822 166.089 303.555 165.899C275.287 165.709 252.218 188.47 252.028 216.737C251.838 245.004 274.6 268.073 302.867 268.263Z" fill="#7091DB"/>
<path d="M305.714 268.47C333.99 268.66 357.066 245.892 357.256 217.617C357.445 189.341 334.678 166.266 306.402 166.076C278.126 165.886 255.05 188.654 254.86 216.929C254.67 245.205 277.438 268.28 305.714 268.47Z" fill="#6F91DB"/>
<path d="M308.482 268.686C336.765 268.876 359.846 246.103 360.036 217.821C360.226 189.538 337.453 166.457 309.17 166.267C280.888 166.077 257.807 188.85 257.617 217.133C257.427 245.415 280.2 268.496 308.482 268.686Z" fill="#6F91DB"/>
<path d="M311.178 268.925C339.469 269.115 362.557 246.335 362.747 218.045C362.937 189.754 340.157 166.666 311.866 166.476C283.576 166.286 260.487 189.066 260.297 217.357C260.107 245.647 282.887 268.735 311.178 268.925Z" fill="#6E90DB"/>
<path d="M313.788 269.182C342.087 269.372 365.182 246.586 365.373 218.287C365.563 189.988 342.776 166.893 314.477 166.703C286.178 166.513 263.083 189.3 262.893 217.598C262.702 245.897 285.489 268.992 313.788 269.182Z" fill="#6E90DB"/>
<path d="M316.317 269.46C344.625 269.65 367.727 246.856 367.917 218.549C368.107 190.242 345.313 167.14 317.006 166.95C288.698 166.76 265.596 189.553 265.406 217.861C265.216 246.168 288.01 269.27 316.317 269.46Z" fill="#6D8FDA"/>
<path d="M318.761 269.752C347.075 269.942 370.182 247.143 370.372 218.829C370.562 190.516 347.763 167.408 319.449 167.218C291.135 167.028 268.028 189.827 267.838 218.141C267.647 246.455 290.446 269.562 318.761 269.752Z" fill="#6C8FDA"/>
<path d="M321.11 270.071C349.433 270.261 372.547 247.456 372.737 219.133C372.927 190.811 350.122 167.697 321.799 167.507C293.477 167.316 270.362 190.122 270.172 218.444C269.982 246.767 292.788 269.881 321.11 270.071Z" fill="#6C8FDA"/>
<path d="M323.369 270.41C351.7 270.601 374.82 247.788 375.011 219.458C375.201 191.127 352.389 168.006 324.058 167.816C295.727 167.625 272.606 190.438 272.416 218.768C272.225 247.099 295.038 270.22 323.369 270.41Z" fill="#6B8EDA"/>
<path d="M325.53 270.767C353.868 270.958 376.994 248.14 377.185 219.803C377.375 191.465 354.557 168.339 326.22 168.148C297.882 167.958 274.755 190.776 274.565 219.113C274.375 247.451 297.193 270.577 325.53 270.767Z" fill="#6B8EDA"/>
<path d="M327.594 271.154C355.94 271.344 379.073 248.52 379.264 220.174C379.454 191.828 356.63 168.695 328.284 168.505C299.938 168.314 276.805 191.139 276.614 219.484C276.424 247.83 299.248 270.963 327.594 271.154Z" fill="#6A8DDA"/>
<path d="M329.552 271.564C357.907 271.754 381.047 248.923 381.237 220.569C381.428 192.215 358.596 169.075 330.242 168.885C301.888 168.694 278.747 191.525 278.557 219.879C278.367 248.233 301.198 271.373 329.552 271.564Z" fill="#6A8DD9"/>
<path d="M331.407 271.998C359.77 272.188 382.917 249.35 383.107 220.988C383.298 192.625 360.46 169.478 332.097 169.288C303.734 169.097 280.587 191.935 280.397 220.298C280.206 248.66 303.044 271.807 331.407 271.998Z" fill="#698CD9"/>
<path d="M333.153 272.455C361.522 272.646 384.674 249.802 384.865 221.433C385.056 193.064 362.212 169.912 333.843 169.721C305.473 169.531 282.321 192.374 282.13 220.743C281.94 249.112 304.783 272.264 333.153 272.455Z" fill="#698CD9"/>
<path d="M334.786 272.942C363.163 273.132 386.323 250.282 386.513 221.905C386.704 193.527 363.854 170.368 335.476 170.177C307.098 169.987 283.939 192.837 283.748 221.214C283.558 249.592 306.408 272.751 334.786 272.942Z" fill="#688CD9"/>
<path d="M336.303 273.458C364.69 273.648 387.856 250.792 388.046 222.406C388.237 194.02 365.38 170.854 336.994 170.663C308.608 170.473 285.442 193.329 285.251 221.715C285.06 250.101 307.917 273.267 336.303 273.458Z" fill="#688BD9"/>
<path d="M337.703 274.001C366.097 274.191 389.27 251.328 389.461 222.934C389.652 194.539 366.788 171.367 338.394 171.176C309.999 170.985 286.826 193.849 286.635 222.243C286.445 250.637 309.308 273.81 337.703 274.001Z" fill="#678BD9"/>
<path d="M338.981 274.57C367.382 274.761 390.561 251.892 390.751 223.491C390.942 195.09 368.073 171.912 339.672 171.721C311.271 171.53 288.092 194.399 287.902 222.8C287.711 251.201 310.58 274.379 338.981 274.57Z" fill="#678AD9"/>
<path d="M340.135 275.171C368.544 275.362 391.729 252.487 391.92 224.077C392.111 195.668 369.235 172.483 340.826 172.292C312.416 172.101 289.231 194.977 289.04 223.386C288.849 251.796 311.725 274.981 340.135 275.171Z" fill="#668AD8"/>
<path d="M341.161 275.806C369.579 275.997 392.771 253.114 392.962 224.697C393.153 196.279 370.27 173.087 341.852 172.896C313.434 172.705 290.242 195.588 290.051 224.005C289.86 252.423 312.743 275.615 341.161 275.806Z" fill="#6689D8"/>
<path d="M342.056 276.469C370.481 276.66 393.679 253.773 393.869 225.348C394.06 196.924 371.172 173.726 342.748 173.536C314.323 173.345 291.126 196.232 290.935 224.657C290.744 253.081 313.632 276.278 342.056 276.469Z" fill="#6589D8"/>
<path d="M342.819 277.165C371.252 277.356 394.456 254.462 394.647 226.029C394.838 197.596 371.943 174.392 343.51 174.201C315.077 174.01 291.873 196.905 291.682 225.337C291.491 253.77 314.386 276.974 342.819 277.165Z" fill="#6589D8"/>
<path d="M343.444 277.897C371.885 278.088 395.096 255.187 395.287 226.745C395.478 198.304 372.577 175.093 344.136 174.902C315.694 174.711 292.483 197.613 292.292 226.054C292.101 254.495 315.002 277.706 343.444 277.897Z" fill="#6488D8"/>
<path d="M343.987 278.704C372.436 278.895 395.654 255.987 395.846 227.537C396.037 199.088 373.129 175.87 344.679 175.679C316.229 175.488 293.011 198.396 292.82 226.845C292.629 255.295 315.537 278.513 343.987 278.704Z" fill="#6388D8"/>
<path d="M344.469 279.516C372.926 279.707 396.149 256.794 396.34 228.338C396.531 199.881 373.618 176.658 345.161 176.467C316.705 176.276 293.482 199.189 293.291 227.646C293.099 256.102 316.013 279.325 344.469 279.516Z" fill="#6387D8"/>
<path d="M344.885 280.337C373.35 280.528 396.58 257.608 396.771 229.144C396.962 200.679 374.042 177.449 345.577 177.258C317.113 177.066 293.882 199.987 293.691 228.451C293.5 256.916 316.42 280.146 344.885 280.337Z" fill="#6287D7"/>
<path d="M345.228 281.161C373.701 281.352 396.938 258.425 397.13 229.952C397.321 201.479 374.394 178.242 345.921 178.051C317.448 177.86 294.211 200.787 294.019 229.26C293.828 257.732 316.755 280.969 345.228 281.161Z" fill="#6286D7"/>
<path d="M345.504 281.987C373.986 282.178 397.23 259.245 397.421 230.763C397.612 202.282 374.679 179.038 346.197 178.847C317.716 178.656 294.472 201.589 294.28 230.07C294.089 258.552 317.023 281.796 345.504 281.987Z" fill="#6186D7"/>
<path d="M345.714 282.812C374.202 283.004 397.452 260.065 397.643 231.577C397.834 203.089 374.895 179.84 346.407 179.648C317.919 179.457 294.669 202.396 294.478 230.884C294.287 259.372 317.226 282.621 345.714 282.812Z" fill="#6186D7"/>
<path d="M345.854 283.644C374.35 283.835 397.607 260.889 397.798 232.393C397.989 203.897 375.044 180.641 346.547 180.449C318.05 180.258 294.794 203.203 294.603 231.7C294.411 260.196 317.357 283.452 345.854 283.644Z" fill="#6085D7"/>
<path d="M345.93 284.481C374.435 284.672 397.698 261.72 397.89 233.215C398.081 204.71 375.129 181.447 346.624 181.256C318.119 181.064 294.856 204.017 294.664 232.521C294.473 261.026 317.425 284.289 345.93 284.481Z" fill="#6085D7"/>
<path d="M345.937 285.314C374.448 285.506 397.717 262.548 397.908 234.036C398.1 205.525 375.142 182.256 346.63 182.065C318.119 181.873 294.85 204.831 294.659 233.343C294.467 261.854 317.425 285.122 345.937 285.314Z" fill="#5F84D7"/>
<path d="M345.876 286.159C374.396 286.351 397.672 263.386 397.863 234.866C398.055 206.347 375.09 183.071 346.57 182.88C318.05 182.688 294.775 205.653 294.583 234.173C294.392 262.692 317.356 285.968 345.876 286.159Z" fill="#5F84D6"/>
<path d="M345.749 287.007C374.278 287.199 397.56 264.227 397.751 235.699C397.943 207.171 374.972 183.889 346.443 183.697C317.915 183.506 294.633 206.477 294.441 235.005C294.249 263.533 317.221 286.815 345.749 287.007Z" fill="#5E83D6"/>
<path d="M345.559 287.857C374.095 288.049 397.384 265.071 397.576 236.534C397.768 207.998 374.79 184.709 346.253 184.517C317.716 184.326 294.427 207.304 294.235 235.84C294.044 264.377 317.022 287.666 345.559 287.857Z" fill="#5E83D6"/>
<path d="M345.302 288.71C373.845 288.902 397.139 265.918 397.331 237.375C397.523 208.832 374.539 185.537 345.996 185.346C317.452 185.154 294.158 208.137 293.966 236.681C293.774 265.224 316.758 288.518 345.302 288.71Z" fill="#5D83D6"/>
<path d="M344.978 289.571C373.529 289.763 396.831 266.773 397.022 238.221C397.214 209.67 374.224 186.369 345.672 186.177C317.12 185.985 293.819 208.975 293.627 237.527C293.435 266.078 316.426 289.38 344.978 289.571Z" fill="#5D82D6"/>
<path d="M344.59 290.439C373.15 290.631 396.458 267.634 396.65 239.074C396.842 210.514 373.845 187.206 345.285 187.014C316.725 186.822 293.417 209.819 293.225 238.379C293.033 266.939 316.03 290.247 344.59 290.439Z" fill="#5C82D6"/>
<path d="M344.139 291.311C372.707 291.503 396.022 268.5 396.214 239.931C396.406 211.363 373.402 188.048 344.834 187.856C316.265 187.664 292.95 210.668 292.758 239.236C292.566 267.805 315.57 291.119 344.139 291.311Z" fill="#5C81D6"/>
<path d="M343.621 292.187C372.196 292.379 395.516 269.37 395.708 240.795C395.9 212.22 372.891 188.899 344.316 188.708C315.74 188.516 292.42 211.525 292.228 240.1C292.036 268.675 315.045 291.995 343.621 292.187Z" fill="#5B81D5"/>
<path d="M343.042 293.071C371.625 293.263 394.953 270.247 395.145 241.664C395.337 213.08 372.321 189.753 343.737 189.561C315.154 189.369 291.826 212.385 291.634 240.968C291.442 269.552 314.458 292.879 343.042 293.071Z" fill="#5B81D5"/>
<path d="M342.396 293.96C370.988 294.153 394.322 271.13 394.514 242.538C394.707 213.946 371.684 190.613 343.092 190.42C314.5 190.228 291.166 213.251 290.974 241.843C290.782 270.435 313.804 293.768 342.396 293.96Z" fill="#5A80D5"/>
<path d="M341.688 294.853C370.286 295.045 393.626 272.017 393.818 243.418C394.01 214.82 370.982 191.481 342.383 191.288C313.785 191.096 290.445 214.124 290.253 242.723C290.061 271.321 313.089 294.661 341.688 294.853Z" fill="#5980D5"/>
<path d="M340.918 295.754C369.525 295.946 392.871 272.911 393.063 244.304C393.255 215.697 370.221 192.351 341.614 192.159C313.007 191.967 289.66 215.001 289.468 243.608C289.276 272.215 312.311 295.561 340.918 295.754Z" fill="#597FD5"/>
<path d="M340.084 296.663C368.7 296.855 392.053 273.814 392.245 245.199C392.437 216.583 369.396 193.23 340.78 193.038C312.165 192.846 288.812 215.887 288.62 244.503C288.427 273.118 311.469 296.471 340.084 296.663Z" fill="#587FD5"/>
<path d="M339.19 297.582C367.814 297.774 391.174 274.726 391.366 246.102C391.559 217.479 368.51 194.119 339.887 193.926C311.263 193.734 287.903 216.782 287.71 245.406C287.518 274.029 310.566 297.389 339.19 297.582Z" fill="#587ED5"/>
<path d="M338.232 298.502C366.863 298.695 390.228 275.641 390.421 247.011C390.613 218.381 367.559 195.015 338.929 194.823C310.298 194.631 286.933 217.684 286.74 246.315C286.548 274.945 309.602 298.31 338.232 298.502Z" fill="#577ED4"/>
<path d="M337.214 299.432C365.853 299.624 389.225 276.564 389.418 247.926C389.61 219.287 366.549 195.915 337.911 195.722C309.272 195.53 285.899 218.59 285.707 247.229C285.515 275.868 308.575 299.24 337.214 299.432Z" fill="#577ED4"/>
<path d="M336.135 300.373C364.782 300.566 388.161 277.499 388.354 248.852C388.546 220.205 365.479 196.826 336.832 196.633C308.185 196.441 284.805 219.508 284.613 248.155C284.421 276.802 307.488 300.181 336.135 300.373Z" fill="#567DD4"/>
<path d="M334.992 301.317C363.646 301.51 387.031 278.437 387.223 249.784C387.416 221.13 364.343 197.745 335.689 197.553C307.035 197.36 283.651 220.433 283.458 249.087C283.266 277.74 306.338 301.125 334.992 301.317Z" fill="#567DD4"/>
<path d="M333.792 302.273C362.454 302.465 385.845 279.386 386.038 250.724C386.23 222.062 363.151 198.671 334.489 198.478C305.827 198.286 282.435 221.365 282.243 250.027C282.05 278.689 305.129 302.08 333.792 302.273Z" fill="#557CD4"/>
<path d="M332.528 303.237C361.198 303.43 384.596 280.344 384.789 251.673C384.982 223.003 361.896 199.605 333.225 199.412C304.554 199.22 281.156 222.305 280.963 250.976C280.771 279.646 303.857 303.044 332.528 303.237Z" fill="#557CD4"/>
<path d="M331.206 304.21C359.885 304.403 383.29 281.31 383.483 252.631C383.675 223.953 360.582 200.548 331.903 200.355C303.224 200.162 279.819 223.255 279.627 251.934C279.434 280.613 302.527 304.018 331.206 304.21Z" fill="#547BD3"/>
<path d="M329.823 305.189C358.509 305.381 381.92 282.283 382.112 253.598C382.305 224.912 359.207 201.502 330.521 201.309C301.835 201.117 278.425 224.215 278.232 252.9C278.039 281.586 301.138 304.996 329.823 305.189Z" fill="#547BD3"/>
<path d="M328.383 306.179C357.077 306.372 380.495 283.267 380.687 254.573C380.88 225.879 357.775 202.462 329.081 202.27C300.387 202.077 276.97 225.182 276.777 253.875C276.584 282.569 299.689 305.986 328.383 306.179Z" fill="#537BD3"/>
<path d="M326.883 307.178C355.585 307.371 379.009 284.259 379.202 255.557C379.395 226.855 356.283 203.431 327.581 203.238C298.878 203.045 275.454 226.157 275.261 254.859C275.069 283.561 298.18 306.985 326.883 307.178Z" fill="#537AD3"/>
<path d="M325.324 308.189C354.035 308.382 377.466 285.264 377.659 256.553C377.852 227.842 354.733 204.412 326.023 204.219C297.312 204.026 273.881 227.144 273.688 255.855C273.495 284.565 296.613 307.996 325.324 308.189Z" fill="#527AD3"/>
<path d="M323.708 309.205C352.426 309.398 375.862 286.275 376.055 257.557C376.248 228.84 353.124 205.404 324.407 205.211C295.689 205.018 272.253 228.142 272.06 256.859C271.867 285.576 294.991 309.012 323.708 309.205Z" fill="#5279D3"/>
<path d="M322.031 310.236C350.757 310.429 374.201 287.299 374.394 258.573C374.587 229.848 351.456 206.405 322.73 206.212C294.004 206.019 270.561 229.149 270.368 257.875C270.175 286.6 293.306 310.044 322.031 310.236Z" fill="#5179D3"/>
<path d="M320.3 311.276C349.034 311.469 372.484 288.332 372.677 259.598C372.87 230.864 349.733 207.414 320.999 207.221C292.265 207.028 268.815 230.165 268.622 258.899C268.429 287.633 291.566 311.083 320.3 311.276Z" fill="#5078D2"/>
<path d="M318.511 312.325C347.252 312.518 370.708 289.376 370.901 260.635C371.094 231.894 347.951 208.439 319.21 208.246C290.469 208.053 267.014 231.195 266.821 259.936C266.628 288.677 289.77 312.132 318.511 312.325Z" fill="#5078D2"/>
<path d="M316.662 313.386C345.411 313.579 368.873 290.43 369.066 261.68C369.26 232.931 346.11 209.469 317.361 209.276C288.612 209.083 265.149 232.232 264.956 260.981C264.763 289.73 287.912 313.193 316.662 313.386Z" fill="#4F78D2"/>
<path d="M314.76 314.458C343.518 314.651 366.987 291.495 367.18 262.737C367.374 233.98 344.218 210.511 315.46 210.318C286.702 210.124 263.233 233.28 263.04 262.038C262.847 290.795 286.003 314.264 314.76 314.458Z" fill="#4F77D2"/>
<path d="M312.798 315.545C341.564 315.738 365.041 292.575 365.234 263.809C365.427 235.043 342.264 211.567 313.498 211.374C284.732 211.181 261.256 234.344 261.063 263.11C260.87 291.875 284.032 315.351 312.798 315.545Z" fill="#4E77D2"/>
<path d="M310.785 316.637C339.558 316.831 363.039 293.662 363.232 264.89C363.426 236.117 340.257 212.636 311.485 212.443C282.712 212.249 259.23 235.418 259.037 264.19C258.844 292.963 282.012 316.444 310.785 316.637Z" fill="#4E76D2"/>
<path d="M308.711 317.744C337.492 317.938 360.98 294.763 361.173 265.982C361.367 237.201 338.192 213.713 309.411 213.52C280.63 213.326 257.141 236.501 256.948 265.282C256.754 294.063 279.929 317.551 308.711 317.744Z" fill="#4D76D2"/>
<path d="M306.585 318.864C335.374 319.057 358.869 295.876 359.063 267.086C359.256 238.297 336.074 214.802 307.285 214.609C278.496 214.415 255 237.597 254.807 266.386C254.614 295.175 277.795 318.67 306.585 318.864Z" fill="#4D75D1"/>
<path d="M304.401 319.994C333.199 320.188 356.701 297 356.895 268.202C357.088 239.404 333.9 215.902 305.102 215.709C276.304 215.516 252.802 238.704 252.609 267.501C252.415 296.299 275.604 319.801 304.401 319.994Z" fill="#4C75D1"/>
<path d="M302.166 321.137C330.971 321.331 354.478 298.137 354.672 269.333C354.865 240.528 331.671 217.021 302.867 216.828C274.062 216.634 250.555 239.828 250.361 268.632C250.168 297.436 273.362 320.944 302.166 321.137Z" fill="#4C75D1"/>
<path d="M299.873 322.294C328.686 322.488 352.201 299.288 352.394 270.475C352.588 241.662 329.387 218.148 300.574 217.954C271.761 217.761 248.247 240.961 248.054 269.774C247.86 298.587 271.061 322.101 299.873 322.294Z" fill="#4B74D1"/>
<path d="M297.529 323.467C326.35 323.66 349.872 300.453 350.065 271.632C350.259 242.811 327.051 219.29 298.23 219.096C269.409 218.903 245.888 242.11 245.694 270.931C245.501 299.752 268.708 323.273 297.529 323.467Z" fill="#4B74D1"/>
<path d="M295.13 324.648C323.958 324.841 347.485 301.629 347.678 272.801C347.872 243.973 324.659 220.447 295.831 220.253C267.003 220.059 243.477 243.272 243.283 272.1C243.089 300.927 266.302 324.454 295.13 324.648Z" fill="#4A73D1"/>
<path d="M292.68 325.843C321.516 326.037 345.049 302.818 345.243 273.981C345.437 245.145 322.217 221.612 293.381 221.418C264.545 221.225 241.011 244.444 240.817 273.28C240.624 302.116 263.843 325.649 292.68 325.843Z" fill="#4A73D1"/>
<path d="M290.174 327.054C319.019 327.248 342.559 304.022 342.753 275.177C342.947 246.333 319.721 222.792 290.876 222.599C262.031 222.405 238.491 245.631 238.297 274.475C238.103 303.32 261.33 326.86 290.174 327.054Z" fill="#4973D0"/>
<path d="M287.617 328.279C316.47 328.473 340.018 305.24 340.211 276.387C340.405 247.534 317.172 223.987 288.319 223.794C259.466 223.6 235.919 246.833 235.725 275.685C235.531 304.538 258.764 328.085 287.617 328.279Z" fill="#4972D0"/>
<path d="M285.006 329.516C313.866 329.71 337.418 306.472 337.612 277.612C337.806 248.753 314.568 225.2 285.708 225.007C256.848 224.813 233.296 248.051 233.102 276.91C232.908 305.77 256.146 329.322 285.006 329.516Z" fill="#4872D0"/>
<path d="M282.343 330.768C311.211 330.962 334.77 307.717 334.964 278.849C335.158 249.981 311.913 226.422 283.045 226.228C254.177 226.034 230.617 249.279 230.423 278.147C230.23 307.015 253.475 330.574 282.343 330.768Z" fill="#4871D0"/>
<path d="M279.631 332.038C308.508 332.232 332.074 308.98 332.268 280.104C332.462 251.227 309.21 227.661 280.334 227.467C251.457 227.273 227.891 250.525 227.697 279.401C227.503 308.278 250.755 331.844 279.631 332.038Z" fill="#4771D0"/>
<path d="M276.865 333.319C305.749 333.513 329.323 310.255 329.517 281.37C329.711 252.486 306.452 228.913 277.567 228.719C248.682 228.525 225.109 251.783 224.915 280.668C224.721 309.552 247.98 333.125 276.865 333.319Z" fill="#4670D0"/>
<path d="M274.05 334.616C302.941 334.81 326.52 311.546 326.714 282.654C326.908 253.763 303.644 230.185 274.752 229.991C245.861 229.797 222.282 253.06 222.088 281.952C221.894 310.843 245.158 334.421 274.05 334.616Z" fill="#4670D0"/>
<path d="M271.18 335.93C300.08 336.124 323.665 312.853 323.859 283.954C324.054 255.054 300.783 231.469 271.883 231.274C242.983 231.08 219.398 254.351 219.204 283.251C219.009 312.15 242.28 335.735 271.18 335.93Z" fill="#4570CF"/>
<path d="M268.265 337.259C297.173 337.453 320.766 314.176 320.96 285.268C321.154 256.359 297.876 232.767 268.968 232.573C240.06 232.379 216.468 255.656 216.274 284.564C216.079 313.472 239.357 337.065 268.265 337.259Z" fill="#456FCF"/>
<path d="M265.298 338.6C294.213 338.794 317.811 315.511 318.005 286.596C318.199 257.682 294.917 234.084 266.002 233.89C237.087 233.696 213.489 256.978 213.295 285.893C213.101 314.808 236.383 338.405 265.298 338.6Z" fill="#446FCF"/>
<path d="M262.28 339.961C291.203 340.155 314.808 316.866 315.002 287.943C315.196 259.02 291.907 235.415 262.983 235.221C234.06 235.027 210.455 258.316 210.261 287.239C210.067 316.163 233.356 339.767 262.28 339.961Z" fill="#446ECF"/>
<path d="M259.213 341.337C288.145 341.532 311.756 318.236 311.95 289.304C312.145 260.373 288.848 236.762 259.917 236.567C230.985 236.373 207.374 259.669 207.179 288.6C206.985 317.532 230.281 341.143 259.213 341.337Z" fill="#436ECF"/>
<path d="M256.097 342.732C285.037 342.926 308.656 319.623 308.85 290.683C309.044 261.743 285.741 238.125 256.801 237.931C227.861 237.737 204.243 261.04 204.049 289.979C203.854 318.919 227.157 342.537 256.097 342.732Z" fill="#436DCF"/>
<path d="M252.933 344.141C281.88 344.335 305.503 321.027 305.698 292.081C305.892 263.134 282.584 239.51 253.637 239.316C224.69 239.122 201.067 262.43 200.872 291.376C200.678 320.323 223.986 343.946 252.933 344.141Z" fill="#426DCE"/>
<path d="M249.72 345.568C278.675 345.762 302.306 322.447 302.5 293.492C302.695 264.537 279.38 240.907 250.425 240.713C221.469 240.518 197.839 263.833 197.644 292.788C197.45 321.743 220.765 345.373 249.72 345.568Z" fill="#426DCE"/>
<path d="M246.459 347.013C275.422 347.207 299.06 323.886 299.254 294.922C299.449 265.959 276.127 242.322 247.163 242.127C218.2 241.933 194.563 265.254 194.368 294.218C194.173 323.181 217.495 346.818 246.459 347.013Z" fill="#416CCE"/>
<path d="M243.152 348.475C272.124 348.67 295.768 325.342 295.962 296.37C296.157 267.398 272.828 243.754 243.857 243.56C214.885 243.365 191.241 266.693 191.046 295.665C190.851 324.637 214.18 348.281 243.152 348.475Z" fill="#416CCE"/>
<path d="M239.796 349.953C268.775 350.148 292.424 326.814 292.619 297.835C292.814 268.857 269.48 245.208 240.501 245.013C211.523 244.818 187.873 268.152 187.678 297.131C187.484 326.109 210.818 349.758 239.796 349.953Z" fill="#406BCE"/>
<path d="M236.392 351.454C265.379 351.649 289.035 328.308 289.23 299.322C289.425 270.335 266.084 246.679 237.097 246.484C208.11 246.289 184.454 269.63 184.259 298.617C184.064 327.603 207.405 351.26 236.392 351.454Z" fill="#406BCE"/>
<path d="M232.942 352.971C261.938 353.166 285.601 329.818 285.796 300.823C285.991 271.828 262.643 248.165 233.648 247.97C204.652 247.775 180.989 271.123 180.794 300.118C180.6 329.113 203.947 352.776 232.942 352.971Z" fill="#3F6ACE"/>
<path d="M229.447 354.502C258.449 354.697 282.118 331.344 282.313 302.342C282.507 273.34 259.155 249.672 230.153 249.477C201.151 249.282 177.482 272.635 177.287 301.637C177.092 330.638 200.445 354.307 229.447 354.502Z" fill="#3F6ACD"/>
<path d="M225.906 356.057C254.917 356.252 278.592 332.892 278.787 303.882C278.982 274.872 255.622 251.197 226.612 251.002C197.601 250.807 173.926 274.166 173.731 303.177C173.536 332.187 196.896 355.862 225.906 356.057Z" fill="#3E6ACD"/>
<path d="M222.316 357.63C251.335 357.825 275.018 334.459 275.212 305.44C275.407 276.422 252.041 252.739 223.022 252.544C194.004 252.35 170.321 275.716 170.126 304.734C169.931 333.753 193.298 357.435 222.316 357.63Z" fill="#3D69CD"/>
<path d="M218.684 359.221C247.711 359.416 271.401 336.043 271.596 307.016C271.791 277.989 248.418 254.3 219.39 254.105C190.363 253.91 166.674 277.283 166.479 306.31C166.284 335.337 189.657 359.026 218.684 359.221Z" fill="#3D69CD"/>
<path d="M215.007 360.83C244.041 361.025 267.735 337.646 267.93 308.613C268.125 279.579 244.747 255.885 215.713 255.69C186.679 255.495 162.984 278.873 162.789 307.906C162.594 336.94 185.973 360.634 215.007 360.83Z" fill="#3C68CD"/>
<path d="M211.283 362.459C240.326 362.654 264.027 339.269 264.222 310.227C264.417 281.185 241.032 257.484 211.99 257.289C182.948 257.094 159.246 280.479 159.051 309.521C158.856 338.563 182.241 362.264 211.283 362.459Z" fill="#3C68CD"/>
<path d="M207.515 364.113C236.565 364.308 260.273 340.916 260.468 311.866C260.664 282.815 237.272 259.107 208.221 258.912C179.171 258.717 155.462 282.109 155.267 311.159C155.072 340.209 178.464 363.917 207.515 364.113Z" fill="#3B67CD"/>
<path d="M203.703 365.784C232.762 365.979 256.477 342.581 256.672 313.522C256.868 284.463 233.469 260.748 204.41 260.553C175.351 260.358 151.636 283.756 151.441 312.815C151.246 341.874 174.644 365.589 203.703 365.784Z" fill="#3B67CC"/>
<path d="M199.849 367.47C228.915 367.666 252.635 344.262 252.83 315.196C253.026 286.131 229.622 262.411 200.556 262.215C171.49 262.02 147.77 285.424 147.574 314.489C147.379 343.555 170.783 367.275 199.849 367.47Z" fill="#3A67CC"/>
<path d="M195.949 369.184C225.023 369.379 248.751 345.968 248.946 316.895C249.141 287.821 225.731 264.094 196.657 263.898C167.583 263.703 143.855 287.114 143.66 316.187C143.465 345.261 166.875 368.988 195.949 369.184Z" fill="#3A66CC"/>
<path d="M192.007 370.918C221.09 371.113 244.824 347.696 245.019 318.614C245.215 289.532 221.797 265.797 192.715 265.602C163.632 265.407 139.898 288.824 139.703 317.906C139.507 346.988 162.925 370.723 192.007 370.918Z" fill="#3966CC"/>
<path d="M188.026 372.667C217.115 372.862 240.854 349.44 241.05 320.351C241.245 291.262 217.822 267.522 188.733 267.327C159.644 267.132 135.904 290.554 135.709 319.643C135.514 348.732 158.936 372.472 188.026 372.667Z" fill="#3965CC"/>
<path d="M183.998 374.443C213.096 374.638 236.842 351.209 237.038 322.112C237.233 293.015 213.803 269.268 184.706 269.073C155.609 268.877 131.862 292.307 131.667 321.404C131.471 350.501 154.901 374.248 183.998 374.443Z" fill="#3865CC"/>
<path d="M179.928 376.24C209.034 376.435 232.788 352.999 232.983 323.894C233.179 294.788 209.742 271.035 180.636 270.839C151.531 270.644 127.777 294.08 127.582 323.186C127.386 352.291 150.823 376.044 179.928 376.24Z" fill="#3865CC"/>
<path d="M175.819 378.058C204.933 378.254 228.693 354.811 228.889 325.697C229.085 296.583 205.641 272.823 176.527 272.627C147.413 272.431 123.653 295.874 123.457 324.988C123.262 354.102 146.705 377.862 175.819 378.058Z" fill="#3764CB"/>
<path d="M171.664 379.897C200.785 380.092 224.551 356.644 224.746 327.523C224.942 298.403 201.493 274.637 172.372 274.442C143.252 274.246 119.486 297.694 119.29 326.815C119.095 355.936 142.543 379.701 171.664 379.897Z" fill="#3764CB"/>
<path d="M167.473 381.76C196.602 381.955 220.374 358.5 220.57 329.371C220.766 300.242 197.31 276.47 168.181 276.274C139.052 276.079 115.279 299.534 115.084 328.663C114.888 357.792 138.343 381.564 167.473 381.76Z" fill="#3663CB"/>
<path d="M163.238 383.647C192.376 383.842 216.155 360.38 216.351 331.243C216.547 302.106 193.085 278.327 163.947 278.131C134.809 277.935 111.03 301.397 110.834 330.534C110.639 359.672 134.101 383.451 163.238 383.647Z" fill="#3663CB"/>
<path d="M158.965 385.551C188.109 385.747 211.894 362.28 212.09 333.136C212.285 303.992 188.818 280.207 159.674 280.011C130.529 279.816 106.745 303.283 106.549 332.427C106.353 361.571 129.821 385.356 158.965 385.551Z" fill="#3562CB"/>
<path d="M154.648 387.483C183.801 387.679 207.593 364.205 207.789 335.052C207.984 305.9 184.51 282.109 155.358 281.913C126.205 281.717 102.413 305.191 102.217 334.343C102.022 363.496 125.496 387.287 154.648 387.483Z" fill="#3562CB"/>
<path d="M150.296 389.436C179.457 389.631 203.255 366.151 203.451 336.99C203.647 307.829 180.166 284.031 151.005 283.835C121.844 283.639 98.0456 307.12 97.8497 336.281C97.6538 365.441 121.135 389.24 150.296 389.436Z" fill="#3462CB"/>
<path d="M146.013 391.365C175.182 391.561 198.988 368.073 199.183 338.904C199.379 309.735 175.892 285.93 146.722 285.734C117.553 285.538 93.7478 309.025 93.5519 338.194C93.3559 367.364 116.844 391.169 146.013 391.365Z" fill="#3361CA"/>
<path d="M142.508 392.974C171.684 393.17 195.495 369.677 195.691 340.502C195.887 311.326 172.394 287.515 143.217 287.319C114.041 287.123 90.2307 310.616 90.0347 339.792C89.8387 368.968 113.332 392.778 142.508 392.974Z" fill="#3361CA"/>
<path d="M139.075 394.606C168.26 394.802 192.077 371.302 192.274 342.118C192.47 312.934 168.97 289.117 139.785 288.921C110.601 288.724 86.7833 312.224 86.5873 341.408C86.3913 370.593 109.891 394.41 139.075 394.606Z" fill="#3260CA"/>
<path d="M135.716 396.25C164.908 396.446 188.733 372.94 188.929 343.747C189.125 314.555 165.619 290.73 136.426 290.534C107.233 290.338 83.4085 313.844 83.2125 343.037C83.0164 372.23 106.523 396.054 135.716 396.25Z" fill="#3260CA"/>
<path d="M132.429 397.907C161.63 398.103 185.461 374.59 185.657 345.389C185.853 316.188 162.34 292.357 133.139 292.161C103.938 291.965 80.1066 315.478 79.9105 344.679C79.7143 373.88 103.228 397.711 132.429 397.907Z" fill="#315FCA"/>
<path d="M129.217 399.579C158.425 399.776 182.262 376.257 182.458 347.049C182.654 317.842 159.135 294.005 129.928 293.809C100.72 293.613 76.8831 317.131 76.6869 346.339C76.4907 375.547 100.009 399.383 129.217 399.579Z" fill="#315FCA"/>
<path d="M126.075 401.267C155.292 401.464 179.135 377.938 179.331 348.722C179.528 319.506 156.002 295.663 126.786 295.467C97.5698 295.271 73.7263 318.796 73.53 348.012C73.3338 377.228 96.8591 401.071 126.075 401.267Z" fill="#305FCA"/>
<path d="M123.003 402.971C152.228 403.167 176.078 379.635 176.275 350.411C176.471 321.187 152.939 297.336 123.714 297.14C94.4896 296.944 70.6392 320.476 70.4429 349.7C70.2466 378.925 93.7787 402.775 123.003 402.971Z" fill="#305EC9"/>
<path d="M120.007 404.685C149.238 404.881 173.094 381.344 173.29 352.113C173.486 322.881 149.949 299.026 120.718 298.829C91.4863 298.633 67.6305 322.17 67.4342 351.401C67.2378 380.633 90.7753 404.488 120.007 404.685Z" fill="#2F5EC9"/>
<path d="M117.08 406.413C146.319 406.61 170.182 383.066 170.378 353.826C170.575 324.587 147.031 300.724 117.791 300.528C88.5512 300.332 64.6886 323.876 64.4922 353.115C64.2958 382.355 87.84 406.217 117.08 406.413Z" fill="#2F5DC9"/>
<path d="M114.223 408.158C143.471 408.354 167.34 384.804 167.536 355.556C167.733 326.308 144.182 302.439 114.934 302.242C85.6859 302.046 61.8164 325.596 61.62 354.844C61.4235 384.092 84.9745 407.961 114.223 408.158Z" fill="#2E5DC9"/>
<path d="M111.438 409.915C140.694 410.111 164.57 386.554 164.767 357.298C164.964 328.041 141.406 304.165 112.149 303.969C82.893 303.772 59.0167 327.33 58.8202 356.586C58.6237 385.842 82.1814 409.718 111.438 409.915Z" fill="#2E5CC9"/>
<path d="M108.719 411.685C137.982 411.881 161.864 388.318 162.061 359.055C162.257 329.793 138.694 305.911 109.431 305.714C80.1681 305.518 56.2863 329.081 56.0898 358.344C55.8932 387.607 79.4563 411.488 108.719 411.685Z" fill="#2D5CC9"/>
<path d="M106.074 413.467C135.346 413.664 159.234 390.094 159.431 360.823C159.627 331.552 136.058 307.663 106.786 307.466C77.5147 307.27 53.6261 330.84 53.4295 360.111C53.2329 389.382 76.8027 413.27 106.074 413.467Z" fill="#2D5CC8"/>
<path d="M103.498 415.262C132.778 415.459 156.673 391.882 156.87 362.603C157.067 333.323 133.49 309.428 104.21 309.231C74.9305 309.034 51.035 332.611 50.8384 361.89C50.6417 391.17 74.2182 415.065 103.498 415.262Z" fill="#2C5BC8"/>
<path d="M100.992 417.073C130.28 417.269 154.183 393.686 154.379 364.398C154.576 335.11 130.993 311.208 101.705 311.011C72.4164 310.815 48.5141 334.398 48.3174 363.686C48.1206 392.974 71.7039 416.876 100.992 417.073Z" fill="#2C5BC8"/>
<path d="M98.5526 418.89C127.847 419.086 151.755 395.498 151.952 366.203C152.149 336.909 128.56 313.001 99.2651 312.804C69.9702 312.607 46.0625 336.196 45.8658 365.491C45.669 394.785 69.2577 418.693 98.5526 418.89Z" fill="#2B5AC8"/>
<path d="M96.1854 420.722C125.489 420.919 149.403 397.324 149.6 368.021C149.797 338.718 126.201 314.803 96.8982 314.607C67.5949 314.41 43.6804 338.005 43.4836 367.308C43.2867 396.611 66.8822 420.525 96.1854 420.722Z" fill="#2A5AC8"/>
<path d="M93.8819 422.567C123.194 422.764 147.115 399.162 147.312 369.851C147.509 340.54 123.907 316.618 94.5949 316.421C65.2833 316.225 41.3619 339.827 41.165 369.138C40.9681 398.449 64.5703 422.371 93.8819 422.567Z" fill="#2A59C8"/>
<path d="M91.6513 424.419C120.97 424.616 144.896 401.009 145.093 371.691C145.29 342.373 121.683 318.446 92.3644 318.249C63.0461 318.052 39.1193 341.66 38.9224 370.978C38.7254 400.296 62.333 424.222 91.6513 424.419Z" fill="#2959C8"/>
</g>
<defs>
<clipPath id="clip0_562_33360">
<rect width="460.937" height="530.576" fill="white" transform="translate(3.56348) rotate(0.384853)"/>
</clipPath>
</defs>
</svg>
